<svg xmlns="http://www.w3.org/2000/svg" viewBox="0 0 359 82"><title>Asset 18bg</title><rect width="82" height="82" fill="#fff"/><rect x="84.64" y="50" width="113.36" height="32" fill="#fff"/><rect x="84.64" width="274.36" height="47" fill="#fff"/><path d="M116.22,9.41h-1.88l-10.08,25.3L93.81,9.41H86.7v1.42l4.1.42V36.73l-3.94.47v1.42h9.6V37.2l-3.87-.47V22.34l-.24-9.26L103,38.62h1.55L114.75,13.1l0,12.21c0,3.78,0,7.66-.09,11.48l-4,.41v1.42H122V37.2l-4.26-.42c-.07-3.86-.08-7.75-.08-11.63V22.87c0-3.92,0-7.8.08-11.63l4.26-.41V9.41h-5.75Z" fill="#1e1e1e"/><path d="M138.58,8.79c-6.86,0-13,5.83-13,15.23,0,9.66,6.15,15.22,13,15.22s13-5.81,13-15.22C151.59,14.37,145.44,8.79,138.58,8.79Zm0,28.72C132.16,37.51,129,31,129,24s3.21-13.5,9.63-13.5S148.17,17,148.17,24,145,37.51,138.58,37.51Z" fill="#1e1e1e"/><path d="M169.73,8.79c-6.86,0-13,5.83-13,15.23,0,9.66,6.15,15.22,13,15.22s13-5.81,13-15.22C182.74,14.37,176.59,8.79,169.73,8.79Zm0,28.72c-6.42,0-9.63-6.5-9.63-13.49s3.21-13.5,9.63-13.5,9.6,6.52,9.6,13.5S176.15,37.51,169.73,37.51Z" fill="#1e1e1e"/><polygon points="209.13 9.41 204.46 9.41 204.46 10.83 209.13 11.31 209.13 33.18 192.36 9.41 186.36 9.41 186.36 10.83 189.9 11.16 190.17 11.54 190.17 36.75 186.38 37.2 186.38 38.62 190.17 38.62 191.93 38.62 196.62 38.62 196.62 37.2 191.93 36.71 191.93 14.02 209.69 38.93 210.89 38.93 210.89 35.68 210.89 11.3 214.69 10.83 214.69 9.41 210.89 9.41 209.13 9.41" fill="#1e1e1e"/><path d="M237.54,29.58c-1-3-2.21-4.45-4.58-5,4.68-.79,7.3-3.86,7.3-7.5,0-4.89-3.73-7.66-10.18-7.66H218.31v1.42l4.26.41c.07,3.86.08,7.76.08,11.63v2.28c0,3.92,0,7.81-.08,11.63l-4.26.42v1.42H230V37.2l-4.27-.42c-.07-3.76-.08-7.6-.08-11.72h2.94c3.73,0,5.06.87,6,4.28l2.11,7.3c.48,1.67,1.42,2.34,3.9,2.34a11.23,11.23,0,0,0,3-.36V37.2l-3.71-.33ZM225.62,23.5c0-4.74,0-8.62.08-12.47H230c4.95,0,7.16,2.25,7.16,6s-2.68,6.43-7.3,6.43Z" fill="#1e1e1e"/><path d="M250.74,9.41H246.5v1.42l4.26.41c.08,3.86.09,7.76.09,11.63v2.28c0,3.92,0,7.81-.09,11.63l-4.26.42v1.42h11.67V37.2l-4.26-.42c-.08-3.86-.09-7.75-.09-11.63V22.87c0-3.92,0-7.8.09-11.63l4.26-.41V9.41h-7.43Z" fill="#1e1e1e"/><path d="M272.63,22.45l-1.71-.67c-3.26-1.28-5.19-3-5.19-6,0-3.54,2.72-5.31,6.39-5.31a7.73,7.73,0,0,1,4.24,1.11l.74,4.87h2l.21-5.49a11.37,11.37,0,0,0-7.05-2.22c-5.06,0-9.21,2.68-9.21,7.67,0,4.12,2.7,6.62,7.21,8.41l1.63.65c4.42,1.76,6,3.22,6,6.19,0,3.81-3,5.8-7.36,5.8a9.55,9.55,0,0,1-5.3-1.37l-.74-5.08h-2l-.24,5.86a16.06,16.06,0,0,0,8.33,2.32c5.77,0,10-3,10-8C280.6,27.19,278.63,24.81,272.63,22.45Z" fill="#1e1e1e"/><path d="M304,36.89H291.87c-.07-3.85-.08-7.8-.08-12.31h7.29l.51,4.15h1.55v-10h-1.55L299.06,23H291.8c0-4.14,0-8,.08-11.81h11.36l.89,5.61h1.93l-.35-7.34H284.48v1.42l4.26.41c.07,3.86.09,7.76.09,11.63v2.28c0,3.92,0,7.81-.09,11.63l-4.26.42v1.42h22l.35-7.34H304.9Z" fill="#1e1e1e"/><path d="M329.91,29.58c-1-3-2.21-4.45-4.58-5,4.68-.79,7.3-3.86,7.3-7.5,0-4.89-3.73-7.66-10.18-7.66H310.68v1.42l4.26.41C315,15.1,315,19,315,22.87v2.28c0,3.92,0,7.81-.08,11.63l-4.26.42v1.42h11.66V37.2l-4.27-.42C318,33,318,29.18,318,25.06h2.94c3.74,0,5.06.87,6,4.28l2.11,7.3c.48,1.67,1.42,2.34,3.9,2.34a11.23,11.23,0,0,0,3-.36V37.2l-3.71-.33ZM318,23.5c0-4.74,0-8.62.08-12.47h4.32c4.95,0,7.16,2.25,7.16,6s-2.68,6.43-7.3,6.43Z" fill="#1e1e1e"/><path d="M349,22.45l-1.71-.67c-3.26-1.28-5.18-3-5.18-6,0-3.54,2.71-5.31,6.38-5.31a7.71,7.71,0,0,1,4.24,1.11l.74,4.87h2l.22-5.49a11.39,11.39,0,0,0-7-2.22c-5.07,0-9.22,2.68-9.22,7.67,0,4.12,2.7,6.62,7.21,8.41l1.63.65c4.42,1.76,6,3.22,6,6.19,0,3.81-3,5.8-7.36,5.8a9.55,9.55,0,0,1-5.3-1.37l-.74-5.08h-2l-.24,5.86A16.06,16.06,0,0,0,347,39.24c5.77,0,10-3,10-8C357,27.19,355,24.81,349,22.45Z" fill="#1e1e1e"/><path d="M100.44,64.34a3.91,3.91,0,0,0-.77-1.08,4,4,0,0,0-1-.73,4.74,4.74,0,0,0-1.2-.42A6.43,6.43,0,0,0,96.13,62a5.51,5.51,0,0,0-2.63.66,5.36,5.36,0,0,0-1,.69,5.73,5.73,0,0,0-.72.79h-.06a10.65,10.65,0,0,0,.12-1.24c0-.45,0-1,0-1.74V55.54H88.57V76h3.35V66.59a5,5,0,0,1,1.53-1.33,3.83,3.83,0,0,1,1.8-.47,3.15,3.15,0,0,1,1.26.25,1.78,1.78,0,0,1,.85.88,2.63,2.63,0,0,1,.2.7,9.62,9.62,0,0,1,0,1V76H101V67.21a9.83,9.83,0,0,0-.12-1.66A4.78,4.78,0,0,0,100.44,64.34Z" fill="#1e1e1e"/><path d="M114.69,63.62a4.71,4.71,0,0,0-1.89-1.25,7.11,7.11,0,0,0-2.4-.4,6.66,6.66,0,0,0-2.41.46,6,6,0,0,0-2.07,1.38,6.69,6.69,0,0,0-1.45,2.32,9.12,9.12,0,0,0-.53,3.27,8.19,8.19,0,0,0,.57,3.23,5.88,5.88,0,0,0,1.55,2.16A6,6,0,0,0,108.34,76a10,10,0,0,0,2.77.38,14.81,14.81,0,0,0,2.78-.26,9.85,9.85,0,0,0,2-.54V72.91a16.31,16.31,0,0,1-2.15.57,11.31,11.31,0,0,1-2,.19,6.67,6.67,0,0,1-1.65-.19,3.81,3.81,0,0,1-1.34-.6,3.29,3.29,0,0,1-.93-1.09,4.28,4.28,0,0,1-.42-1.62h9c0-.33,0-.74,0-1.21a10,10,0,0,0-.44-3.16A5.71,5.71,0,0,0,114.69,63.62Zm-7.18,3.93a4.73,4.73,0,0,1,.29-1.15,3.07,3.07,0,0,1,.57-.94,2.72,2.72,0,0,1,.86-.64,2.68,2.68,0,0,1,1.13-.23,2.59,2.59,0,0,1,1.11.23,2.35,2.35,0,0,1,.79.64,2.88,2.88,0,0,1,.48.94,3.9,3.9,0,0,1,.16,1.15Z" fill="#1e1e1e"/><polygon points="132.48 62.31 128.52 62.31 125.27 66.84 122.07 62.31 118.13 62.31 123.22 69.03 117.8 76.02 121.65 76.02 125.19 71.25 128.71 76.02 132.63 76.02 127.25 69.02 132.48 62.31" fill="#1e1e1e"/><path d="M145.94,63.67A5.31,5.31,0,0,0,144,62.39a6.09,6.09,0,0,0-2.23-.42,6.52,6.52,0,0,0-1.1.1,6.65,6.65,0,0,0-1,.27,7.12,7.12,0,0,0-.83.38c-.26.15-.49.29-.71.44h0c0-.19,0-.45,0-.8s0-.72,0-1.12v-5.7h-3.35V72.81c0,.54,0,1.11,0,1.71s0,1.1-.05,1.5h2.77l.33-1.46h.05a5.51,5.51,0,0,0,.5.56,5.24,5.24,0,0,0,.79.59,4.37,4.37,0,0,0,1.09.47,4.64,4.64,0,0,0,1.4.2,5.65,5.65,0,0,0,2.19-.45,5.54,5.54,0,0,0,2-1.37,6.89,6.89,0,0,0,1.41-2.34,9.3,9.3,0,0,0,.54-3.29,8.78,8.78,0,0,0-.5-3.07A6.11,6.11,0,0,0,145.94,63.67ZM144.1,71a4.46,4.46,0,0,1-.63,1.45A2.82,2.82,0,0,1,141,73.7a3,3,0,0,1-.91-.13,3.91,3.91,0,0,1-.78-.34,4.64,4.64,0,0,1-.65-.45,4.5,4.5,0,0,1-.49-.48V65.74a5.16,5.16,0,0,1,1.39-.79,4.09,4.09,0,0,1,1.5-.3,3.69,3.69,0,0,1,1.08.17,2.63,2.63,0,0,1,1.05.66,3.5,3.5,0,0,1,.81,1.41,6.93,6.93,0,0,1,.31,2.21A7.78,7.78,0,0,1,144.1,71Z" fill="#1e1e1e"/><path d="M155.52,62.58a4.35,4.35,0,0,0-1.63,1.64h-.06l-.31-1.91h-2.77V76h3.35V66.84a3.81,3.81,0,0,1,1.8-1.41,7.5,7.5,0,0,1,2.71-.46h.29V62A5.61,5.61,0,0,0,158,62,4.83,4.83,0,0,0,155.52,62.58Z" fill="#1e1e1e"/><path d="M170.93,63.62a4.81,4.81,0,0,0-1.9-1.25,7.11,7.11,0,0,0-2.4-.4,6.66,6.66,0,0,0-2.41.46,6,6,0,0,0-2.07,1.38,6.67,6.67,0,0,0-1.44,2.32,9.11,9.11,0,0,0-.54,3.27,8.19,8.19,0,0,0,.57,3.23A5.73,5.73,0,0,0,164.58,76a10,10,0,0,0,2.76.38,15,15,0,0,0,2.79-.26,9.91,9.91,0,0,0,2-.54V72.91a15.91,15.91,0,0,1-2.15.57,11.12,11.12,0,0,1-2,.19,6.69,6.69,0,0,1-1.66-.19,3.9,3.9,0,0,1-1.34-.6,3.15,3.15,0,0,1-.92-1.09,4.11,4.11,0,0,1-.43-1.62h9c0-.33,0-.74,0-1.21a10,10,0,0,0-.45-3.16A5.7,5.7,0,0,0,170.93,63.62Zm-7.18,3.93A4.3,4.3,0,0,1,164,66.4a3.07,3.07,0,0,1,.57-.94,2.56,2.56,0,0,1,2-.87,2.53,2.53,0,0,1,1.11.23,2.26,2.26,0,0,1,.79.64,2.72,2.72,0,0,1,.49.94,4.26,4.26,0,0,1,.16,1.15Z" fill="#1e1e1e"/><path d="M191.91,62.31l-1.76,5.75c-.4,1.3-.76,2.59-1.08,3.86H189c-.3-1.36-.61-2.65-.94-3.86l-1.55-5.75H183l-1.57,5.75c-.37,1.36-.69,2.65-.95,3.86h-.06c-.31-1.25-.67-2.53-1.07-3.86l-1.77-5.75H174L178.83,76h3.3l1.65-6c.36-1.28.67-2.61.93-4h.06c.25,1.31.56,2.63.93,4l1.66,6h3.3l4.79-13.71Z" fill="#1e1e1e"/><path d="M14.84,32.65h0l1.85-1.85L18.53,29h0l1.61-1.6,7.11,2.73L30,31.13h9.84s.68-.09,1.52-.28A10.27,10.27,0,0,0,43.89,30a2.39,2.39,0,0,0,.49-.36c-.28-.05-.58-.1-.89-.17C41.3,29,38.35,28,36,27.35l-2.18-.64-.56-.15-1.07-.28L27.3,22.51l-4-3.31-5.41-.94L11.81,22.8l-.76,6.06,3.7,3.7Z" fill="#1e1e1e"/><path d="M30.94,64l-.28-.32h0l-3.11-3.49-.43-2.54.33-4.54,1.78-4.58.76-5.3a17.68,17.68,0,0,0,.13-3.66,3.5,3.5,0,0,0-.93-2.45c-.22.48-.47,1-.74,1.57s-.57,1.15-.88,1.74c-.15.3-.31.6-.47.9s-.42.81-.64,1.21l-.57,1.07c-1.06,2-2,3.59-2.28,4.12l-.11.2-.31.38-2.51,3.2L19.07,59.3l.32,3.81.74,1.19,1.19,1.92,4.12,3.54,6.13.24a13,13,0,0,0,2.13-.79l.68-.38a4.58,4.58,0,0,0,.59-.45,2,2,0,0,0,.57-.8l-2.13-1.65Z" fill="#1e1e1e"/><polygon points="67.72 56.2 66.49 54.78 65.91 54.1 63.61 51.43 58.93 47.12 58.01 44.79 59.73 41.38 59.92 41.05 59.78 40.89 57.95 40.52 57.59 40.45 53.38 43.18 53 45.63 53.41 48.13 53.71 48.95 54.01 49.77 54.81 51.4 58.03 56.75 58.8 57.98 59.34 58.82 59.58 59.2 59.37 59.81 59.37 59.81 58.89 61.18 58.41 62.55 56.79 64.45 56.55 64.74 59.47 65.94 63.31 66.73 66.01 65.12 67.98 63.35 68.31 61.16 67.79 56.8 67.72 56.2" fill="#1e1e1e"/><path d="M22.57,45l.39-.69c.54-1,1.17-2.15,1.81-3.35a28.37,28.37,0,0,1-1.6-9.4c0-.19,0-.37,0-.56L20.7,30h0l-4,4h0l-.29.29-1.61,1.61-.67-.67h0c-.15.82-.26,1.65-.34,2.49s-.12,1.69-.12,2.55a28.2,28.2,0,0,0,4,14.52l.72-3.49h0l0-.18.11-.52.33-.42,2.7-3.45C21.76,46.41,22.11,45.78,22.57,45Z" fill="#1e1e1e"/><path d="M57,59.39h0a27.7,27.7,0,0,1-5.43.53,28.17,28.17,0,0,1-14.1-3.75,27,27,0,0,1-3.55-2.41,28.88,28.88,0,0,1-3.15-2.91l-1.08,2.8-.28,3.92.27,1.62,2.82,3.18,4.43,3.42.08.07h0l1.22.94-.26.75-.27.74.21,0a27.65,27.65,0,0,0,4.19.32,29.28,29.28,0,0,0,3-.16l.3,0a28.41,28.41,0,0,0,4.28-.83,26.85,26.85,0,0,0,2.83-.95c.46-.18.91-.37,1.36-.57l-1.05-.44,2-2.38.28-.32.11-.13,1-1.13.24-.28.66-1.91Z" fill="#1e1e1e"/><path d="M26.74,19.11a26,26,0,0,1,31,.18c.33.25.66.51,1,.78a24.73,24.73,0,0,1,1.86,1.68c.29.3.58.6.86.91a25.48,25.48,0,0,1,2.33,3c.24.35.46.7.68,1.06A26.06,26.06,0,0,1,66,50.74l1.64,1.9A28.43,28.43,0,0,0,61.2,19.2c-.34-.31-.68-.6-1-.89a28.17,28.17,0,0,0-9.62-5.21c-.45-.14-.9-.27-1.35-.38a28.41,28.41,0,0,0-14.11,0,28.68,28.68,0,0,0-4.33,1.48,27.88,27.88,0,0,0-2.67,1.36v0l-.68.43c-.28.17-.57.33-.85.51s-.59.42-.89.63-.51.34-.75.53h0l1,.82Z" fill="#1e1e1e"/></svg>