<svg xmlns="http://www.w3.org/2000/svg" viewBox="0 0 359 82.98"><title>Asset 17bg</title><rect width="82" height="82" fill="#fff"/><rect x="84.64" y="50" width="113.36" height="32" fill="#fff"/><rect x="84.64" width="274.36" height="47" fill="#fff"/><path d="M86.7,9.41h5.56v1.95h-.4l-5.16-.53Zm.16,27.79,4.43-.53h.78l4.39.53v1.42h-9.6ZM90.8,9.41h1.46l.33,12.93V38.62H90.8Zm0,0h3l11,26.64h-1.09L114.34,9.41h1.88L104.54,38.62H103ZM110.59,37.2l5.16-.53h.78l5.44.53v1.42H110.59Zm4.12-11.89.05-15.9h3c-.11,4.4-.11,8.92-.11,13.46v2.28c0,4.49,0,9,.11,13.47H114.6C114.71,34.22,114.69,29.7,114.71,25.31Zm1.43-15.9H122v1.42l-5.44.53h-.39Z" fill="#1e1e1e"/><path d="M151.59,24c0,9.41-6.12,15.22-13,15.22s-13-5.56-13-15.22c0-9.4,6.18-15.23,13-15.23S151.59,14.37,151.59,24Zm-13,13.49c6.42,0,9.59-6.5,9.59-13.49s-3.17-13.5-9.59-13.5S129,17,129,24,132.16,37.51,138.58,37.51Z" fill="#1e1e1e"/><path d="M182.74,24c0,9.41-6.12,15.22-13,15.22s-13-5.56-13-15.22c0-9.4,6.18-15.23,13-15.23S182.74,14.37,182.74,24Zm-13,13.49c6.42,0,9.6-6.5,9.6-13.49s-3.18-13.5-9.6-13.5S160.1,17,160.1,24,163.31,37.51,169.73,37.51Z" fill="#1e1e1e"/><path d="M189.42,10.49l2.2.84-5.26-.5V9.41h6l18.53,26.27v3.25h-1.2Zm-3,26.71,4.44-.53h.77l5,.53v1.42H186.38Zm3.79-27.79,1.76,1.5V38.62h-1.76Zm14.29,0H214.7v1.42l-4.3.53h-.78l-5.16-.53Zm4.67,0h1.76V38.93l-1.76-1.77Z" fill="#1e1e1e"/><path d="M218.31,10.83V9.41h5.83v1.95h-.39Zm6.22,25.84,5.44.53v1.42H218.31V37.2l5.44-.53Zm-1.88-13.8c0-4.49,0-9-.11-13.46h3.2c-.12,4.48-.12,8.83-.12,14.37v.94c0,4.92,0,9.44.12,13.9h-3.2c.11-4.4.11-8.92.11-13.47Zm1.49.63h5.74c4.62,0,7.3-2.74,7.3-6.43S235,11,230,11h-5.88V9.41h5.94c6.45,0,10.18,2.77,10.18,7.66,0,3.94-3.06,7.21-8.48,7.65l0-.36c3.19.35,4.68,1.71,5.8,5.22l2.55,7.9L239,36.79l4.6.41v1.42a11.23,11.23,0,0,1-3,.36c-2.48,0-3.42-.67-3.9-2.34l-2.11-7.3c-1-3.41-2.29-4.28-6-4.28h-4.42Z" fill="#1e1e1e"/><path d="M246.5,10.83V9.41h11.67v1.42l-5.45.53H252Zm6.22,25.84,5.45.53v1.42H246.5V37.2l5.45-.53Zm-1.87-13.8c0-4.49,0-9-.11-13.46h3.2c-.12,4.4-.12,8.92-.12,13.46v2.28c0,4.49,0,9,.12,13.47h-3.2c.11-4.4.11-8.92.11-13.47Z" fill="#1e1e1e"/><path d="M277.92,31.71c0-3-1.6-4.43-6-6.19l-1.63-.65c-4.51-1.79-7.21-4.29-7.21-8.41,0-5,4.15-7.67,9.21-7.67A11.37,11.37,0,0,1,279.32,11l-.21,5.49h-2l-.94-6.15,2,1.06V13a8.28,8.28,0,0,0-6.06-2.46c-3.67,0-6.39,1.77-6.39,5.31,0,3,1.93,4.67,5.19,6l1.71.67c6,2.36,8,4.74,8,8.74,0,5-4.19,8.05-10,8.05a16.06,16.06,0,0,1-8.33-2.32l.24-5.86h2l.92,6.33-2.1-1V34.86c2.62,1.92,4.26,2.65,7.22,2.65C274.92,37.51,277.92,35.52,277.92,31.71Z" fill="#1e1e1e"/><path d="M284.48,10.83V9.41h5.83v1.95h-.39Zm5.83,25.84v1.95h-5.83V37.2l5.44-.53Zm-1.48-13.8c0-4.49,0-9-.12-13.46h3.2c-.12,4.4-.12,8.92-.12,13.78v1.16c0,5.29,0,9.81.12,14.27h-3.2c.12-4.4.12-8.92.12-13.47ZM303,9.41l1.47,1.73H290.31V9.41h15.4l.35,7.34h-1.93Zm-2.92,15.17h-9.74V23h9.74Zm6.78,6.7-.35,7.34H290.31V36.89h14.9l-1.47,1.73,1.16-7.34Zm-7.81-8,.57-4.48h1.55v10h-1.55L299,24.12Z" fill="#1e1e1e"/><path d="M310.68,10.83V9.41h5.83v1.95h-.39Zm6.22,25.84,5.44.53v1.42H310.68V37.2l5.44-.53ZM315,22.87c0-4.49,0-9-.11-13.46h3.2c-.12,4.48-.12,8.83-.12,14.37v.94c0,4.92,0,9.44.12,13.9h-3.2c.11-4.4.11-8.92.11-13.47Zm1.49.63h5.74c4.62,0,7.3-2.74,7.3-6.43s-2.21-6-7.16-6h-5.88V9.41h5.94c6.45,0,10.18,2.77,10.18,7.66,0,3.94-3.06,7.21-8.48,7.65l0-.36c3.19.35,4.68,1.71,5.8,5.22l2.55,7.9-1.09-.69,4.6.41v1.42a11.23,11.23,0,0,1-3,.36c-2.48,0-3.42-.67-3.9-2.34L327,29.34c-1-3.41-2.28-4.28-6-4.28h-4.42Z" fill="#1e1e1e"/><path d="M354.3,31.71c0-3-1.6-4.43-6-6.19l-1.63-.65c-4.51-1.79-7.21-4.29-7.21-8.41,0-5,4.15-7.67,9.22-7.67a11.39,11.39,0,0,1,7,2.22l-.22,5.49h-2l-.93-6.15,2,1.06V13a8.28,8.28,0,0,0-6.06-2.46c-3.67,0-6.38,1.77-6.38,5.31,0,3,1.92,4.67,5.18,6l1.71.67c6,2.36,8,4.74,8,8.74,0,5-4.19,8.05-10,8.05a16.06,16.06,0,0,1-8.33-2.32l.24-5.86h2l.93,6.33-2.11-1V34.86c2.62,1.92,4.27,2.65,7.22,2.65C351.3,37.51,354.3,35.52,354.3,31.71Z" fill="#1e1e1e"/><path d="M86.7,9.41h5.56v1.95h-.4l-5.16-.53Zm.16,27.79,4.43-.53h.78l4.39.53v1.42h-9.6ZM90.8,9.41h1.46l.33,12.93V38.62H90.8Zm0,0h3l11,26.64h-1.09L114.34,9.41h1.88L104.54,38.62H103ZM110.59,37.2l5.16-.53h.78l5.44.53v1.42H110.59Zm4.12-11.89.05-15.9h3c-.11,4.4-.11,8.92-.11,13.46v2.28c0,4.49,0,9,.11,13.47H114.6C114.71,34.22,114.69,29.7,114.71,25.31Zm1.43-15.9H122v1.42l-5.44.53h-.39Z" fill="#1e1e1e"/><path d="M151.59,24c0,9.41-6.12,15.22-13,15.22s-13-5.56-13-15.22c0-9.4,6.18-15.23,13-15.23S151.59,14.37,151.59,24Zm-13,13.49c6.42,0,9.59-6.5,9.59-13.49s-3.17-13.5-9.59-13.5S129,17,129,24,132.16,37.51,138.58,37.51Z" fill="#1e1e1e"/><path d="M182.74,24c0,9.41-6.12,15.22-13,15.22s-13-5.56-13-15.22c0-9.4,6.18-15.23,13-15.23S182.74,14.37,182.74,24Zm-13,13.49c6.42,0,9.6-6.5,9.6-13.49s-3.18-13.5-9.6-13.5S160.1,17,160.1,24,163.31,37.51,169.73,37.51Z" fill="#1e1e1e"/><path d="M189.42,10.49l2.2.84-5.26-.5V9.41h6l18.53,26.27v3.25h-1.2Zm-3,26.71,4.44-.53h.77l5,.53v1.42H186.38Zm3.79-27.79,1.76,1.5V38.62h-1.76Zm14.29,0H214.7v1.42l-4.3.53h-.78l-5.16-.53Zm4.67,0h1.76V38.93l-1.76-1.77Z" fill="#1e1e1e"/><path d="M218.31,10.83V9.41h5.83v1.95h-.39Zm6.22,25.84,5.44.53v1.42H218.31V37.2l5.44-.53Zm-1.88-13.8c0-4.49,0-9-.11-13.46h3.2c-.12,4.48-.12,8.83-.12,14.37v.94c0,4.92,0,9.44.12,13.9h-3.2c.11-4.4.11-8.92.11-13.47Zm1.49.63h5.74c4.62,0,7.3-2.74,7.3-6.43S235,11,230,11h-5.88V9.41h5.94c6.45,0,10.18,2.77,10.18,7.66,0,3.94-3.06,7.21-8.48,7.65l0-.36c3.19.35,4.68,1.71,5.8,5.22l2.55,7.9L239,36.79l4.6.41v1.42a11.23,11.23,0,0,1-3,.36c-2.48,0-3.42-.67-3.9-2.34l-2.11-7.3c-1-3.41-2.29-4.28-6-4.28h-4.42Z" fill="#1e1e1e"/><path d="M246.5,10.83V9.41h11.67v1.42l-5.45.53H252Zm6.22,25.84,5.45.53v1.42H246.5V37.2l5.45-.53Zm-1.87-13.8c0-4.49,0-9-.11-13.46h3.2c-.12,4.4-.12,8.92-.12,13.46v2.28c0,4.49,0,9,.12,13.47h-3.2c.11-4.4.11-8.92.11-13.47Z" fill="#1e1e1e"/><path d="M277.92,31.71c0-3-1.6-4.43-6-6.19l-1.63-.65c-4.51-1.79-7.21-4.29-7.21-8.41,0-5,4.15-7.67,9.21-7.67A11.37,11.37,0,0,1,279.32,11l-.21,5.49h-2l-.94-6.15,2,1.06V13a8.28,8.28,0,0,0-6.06-2.46c-3.67,0-6.39,1.77-6.39,5.31,0,3,1.93,4.67,5.19,6l1.71.67c6,2.36,8,4.74,8,8.74,0,5-4.19,8.05-10,8.05a16.06,16.06,0,0,1-8.33-2.32l.24-5.86h2l.92,6.33-2.1-1V34.86c2.62,1.92,4.26,2.65,7.22,2.65C274.92,37.51,277.92,35.52,277.92,31.71Z" fill="#1e1e1e"/><path d="M284.48,10.83V9.41h5.83v1.95h-.39Zm5.83,25.84v1.95h-5.83V37.2l5.44-.53Zm-1.48-13.8c0-4.49,0-9-.12-13.46h3.2c-.12,4.4-.12,8.92-.12,13.78v1.16c0,5.29,0,9.81.12,14.27h-3.2c.12-4.4.12-8.92.12-13.47ZM303,9.41l1.47,1.73H290.31V9.41h15.4l.35,7.34h-1.93Zm-2.92,15.17h-9.74V23h9.74Zm6.78,6.7-.35,7.34H290.31V36.89h14.9l-1.47,1.73,1.16-7.34Zm-7.81-8,.57-4.48h1.55v10h-1.55L299,24.12Z" fill="#1e1e1e"/><path d="M310.68,10.83V9.41h5.83v1.95h-.39Zm6.22,25.84,5.44.53v1.42H310.68V37.2l5.44-.53ZM315,22.87c0-4.49,0-9-.11-13.46h3.2c-.12,4.48-.12,8.83-.12,14.37v.94c0,4.92,0,9.44.12,13.9h-3.2c.11-4.4.11-8.92.11-13.47Zm1.49.63h5.74c4.62,0,7.3-2.74,7.3-6.43s-2.21-6-7.16-6h-5.88V9.41h5.94c6.45,0,10.18,2.77,10.18,7.66,0,3.94-3.06,7.21-8.48,7.65l0-.36c3.19.35,4.68,1.71,5.8,5.22l2.55,7.9-1.09-.69,4.6.41v1.42a11.23,11.23,0,0,1-3,.36c-2.48,0-3.42-.67-3.9-2.34L327,29.34c-1-3.41-2.28-4.28-6-4.28h-4.42Z" fill="#1e1e1e"/><path d="M354.3,31.71c0-3-1.6-4.43-6-6.19l-1.63-.65c-4.51-1.79-7.21-4.29-7.21-8.41,0-5,4.15-7.67,9.22-7.67a11.39,11.39,0,0,1,7,2.22l-.22,5.49h-2l-.93-6.15,2,1.06V13a8.28,8.28,0,0,0-6.06-2.46c-3.67,0-6.38,1.77-6.38,5.31,0,3,1.92,4.67,5.18,6l1.71.67c6,2.36,8,4.74,8,8.74,0,5-4.19,8.05-10,8.05a16.06,16.06,0,0,1-8.33-2.32l.24-5.86h2l.93,6.33-2.11-1V34.86c2.62,1.92,4.27,2.65,7.22,2.65C351.3,37.51,354.3,35.52,354.3,31.71Z" fill="#1e1e1e"/><text transform="translate(86.59 76.02)" font-size="28.97" fill="#1e1e1e" font-family="Corbel-Bold, Corbel" font-weight="700">hexbrew</text><text transform="translate(86.59 76.02)" font-size="28.97" fill="#1e1e1e" font-family="Corbel-Bold, Corbel" font-weight="700">hexbrew</text><path d="M27.55,60.21l-.43-2.54.33-4.54,1.78-4.58.76-5.3s.75-4.93-.8-6.11C27.46,41,23.5,48,23.5,48l-2.82,3.58L19.07,59.3l.32,3.81,1.93,3.11,4.12,3.54,6.13.24s3.42-.88,4-2.42L30.94,64Z" fill="#1e1e1e"/><path d="M29.12,39.61a15.42,15.42,0,0,1-.12,3.5l-.74,5.19-1.75,4.47-.05.14v.15l-.32,4.54v.12l0,.12.43,2.53,0,.29.19.21,3.4,3.82.06.07.07,0,3.82,3A8.6,8.6,0,0,1,31.46,69l-5.63-.22-3.74-3.2-1.72-2.78-.29-3.43L21.62,52l2.66-3.41,0-.05,0-.07c.13-.24,2.85-5,4.75-8.83m.07-2.47C27.46,41,23.5,48,23.5,48l-2.82,3.58L19.07,59.3l.32,3.81,1.93,3.11,4.12,3.54,6.13.24s3.42-.88,4-2.42L30.94,64l-3.39-3.81-.43-2.54.33-4.54,1.78-4.58.76-5.3s.75-4.93-.8-6.11Z" fill="#1e1e1e"/><polygon points="63.61 51.43 58.93 47.12 58.01 44.79 59.73 41.38 59.92 41.05 59.78 40.89 57.59 40.45 53.38 43.18 53 45.63 53.41 48.13 54.01 49.77 54.81 51.4 58.03 56.75 59.58 59.2 58.41 62.55 56.55 64.74 59.47 65.94 63.31 66.73 66.01 65.12 67.98 63.35 68.31 61.16 67.72 56.2 63.61 51.43" fill="#1e1e1e"/><path d="M57.79,41.51l.68.14-1.35,2.69-.21.4.17.42L58,47.49l.08.21.17.16,4.64,4.26,3.87,4.51.54,4.51-.25,1.7-1.64,1.47-2.28,1.36L59.76,65l-1.56-.64,1-1.14.12-.14.07-.18,1.16-3.35.16-.45-.26-.41-1.54-2.43-3.19-5.32-.76-1.55-.55-1.49L54,45.63l.28-1.86,3.49-2.26m-.2-1.06-4.21,2.73L53,45.63l.41,2.5.6,1.64.8,1.63L58,56.75l1.55,2.45-1.17,3.35-1.86,2.19,2.92,1.2,3.84.79L66,65.12l2-1.77.33-2.19-.59-4.95-4.11-4.78-4.68-4.31L58,44.79l1.72-3.41.19-.33-.14-.16-2.19-.44Z" fill="#1e1e1e"/><path d="M32.23,26.28,27.3,22.51l-4-3.31-5.41-.94L11.81,22.8l-.76,6.06,3.79,3.79,5.3-5.3L30,31.13h9.84s3.53-.49,4.55-1.51A84.32,84.32,0,0,1,36,27.35C33.82,26.68,32.23,26.28,32.23,26.28Z" fill="#1e1e1e"/><path d="M18.12,19.32l4.73.82,3.84,3.17,4.93,3.76.16.13.2.05s1.61.4,3.78,1.05l1.14.35c1.36.42,2.82.86,4.19,1.23a13.44,13.44,0,0,1-1.33.25H30.17L20.5,26.41l-.61-.23-.46.46-4.59,4.59L12.11,28.5l.64-5.15,5.37-4m-.25-1.06L11.81,22.8l-.76,6.06,3.79,3.79,5.3-5.3L30,31.13h9.84s3.53-.49,4.55-1.51A84.32,84.32,0,0,1,36,27.35c-2.22-.67-3.81-1.07-3.81-1.07L27.3,22.51l-4-3.31-5.41-.94Z" fill="#1e1e1e"/><path d="M29.1,48.87a28.55,28.55,0,0,1-3.22-5.24C24.59,46,23.5,48,23.5,48l-2.82,3.58-1.21,5.84a28.38,28.38,0,0,0,16,10.45,1.34,1.34,0,0,0,.12-.24L30.94,64l-3.39-3.81-.43-2.54.33-4.54Z" fill="#1e1e1e"/><path d="M25.86,45.77A28.78,28.78,0,0,0,28,49l-1.46,3.74-.05.14v.15l-.32,4.54v.12l0,.12.43,2.53,0,.29.19.21,3.4,3.82.06.07.07,0,.47.37a27.5,27.5,0,0,1-10.26-8.06L21.62,52l2.66-3.41,0-.05,0-.07,1.49-2.67m0-2.14C24.59,46,23.5,48,23.5,48l-2.82,3.58-1.21,5.84a28.38,28.38,0,0,0,16,10.45,1.34,1.34,0,0,0,.12-.24L30.94,64l-3.39-3.81-.43-2.54.33-4.54,1.65-4.26a28,28,0,0,1-3.21-5.24Z" fill="#1e1e1e"/><path d="M20.14,27.35l3.2,1.23a28.14,28.14,0,0,1,1.92-7.75l-2-1.63-.2,0a28.47,28.47,0,0,0-8.33,13.4l.09.09Z" fill="#1e1e1e"/><path d="M23.19,20.42l.87.72a28.65,28.65,0,0,0-1.55,6l-2-.77-.61-.23-.46.46-2.3,2.3a27.53,27.53,0,0,1,6.06-8.52m-.11-1.26a28.47,28.47,0,0,0-8.33,13.4l.09.09,5.3-5.3,3.2,1.23a28.14,28.14,0,0,1,1.92-7.75l-2-1.63-.2,0Z" fill="#1e1e1e"/><path d="M56.68,64.58a28.51,28.51,0,0,0,8.89-8.36,28.47,28.47,0,0,1-6.23,2.6l.24.38-1.17,3.35Z" fill="#1e1e1e"/><path d="M62.08,59c-.65.69-1.33,1.34-2,2l.48-1.39v0c.52-.16,1-.34,1.55-.54m3.49-2.74a28.47,28.47,0,0,1-6.23,2.6l.24.38-1.17,3.35-1.73,2a28.51,28.51,0,0,0,8.89-8.36Z" fill="#1e1e1e"/><path d="M18.46,51.07l.11-.52.33-.42,2.71-3.45c.35-.62,1.76-3.14,3.16-5.77a28.37,28.37,0,0,1-1.6-9.4c0-.19,0-.37,0-.56L20.7,30l-4.25,4.25-1.61,1.61-.67-.67a27.76,27.76,0,0,0-.47,5,28.2,28.2,0,0,0,4,14.52Z" fill="#1e1e1e"/><path d="M21,31.16l1.22.47a29.26,29.26,0,0,0,1.51,9.19c-1.3,2.44-2.57,4.71-2.91,5.3l-2.66,3.39-.33.42-.14.19-.05.23-.11.52-.2,1A27.44,27.44,0,0,1,14.7,40.22a25.33,25.33,0,0,1,.18-3l.67-.67L17.15,35l3.8-3.8M20.7,30l-4.25,4.25-1.61,1.61-.67-.67a27.76,27.76,0,0,0-.47,5,28.2,28.2,0,0,0,4,14.52l.76-3.67.11-.52.33-.42,2.7-3.45c.36-.62,1.77-3.14,3.17-5.77a28.37,28.37,0,0,1-1.6-9.4c0-.19,0-.37,0-.56L20.7,30Z" fill="#1e1e1e"/><path d="M52.8,65.64l2-2.38,1.59-1.86.66-1.91L57,59.38a27.7,27.7,0,0,1-5.43.53,28.33,28.33,0,0,1-20.8-9.07l-1.08,2.8-.28,3.92.27,1.62,2.82,3.18,4.43,3.42,1.3,1-.53,1.49a29.13,29.13,0,0,0,4.4.34,28.29,28.29,0,0,0,11.75-2.54Z" fill="#1e1e1e"/><path d="M31.15,52.65a29.47,29.47,0,0,0,20.42,8.26,29,29,0,0,0,4-.28l-.1.27-1.46,1.72L52,65l-.89,1,.06,0a27.25,27.25,0,0,1-9.11,1.55,28.16,28.16,0,0,1-3-.17l.11-.33.25-.68L38.84,66l-1.3-1-4.35-3.37-2.57-2.89-.2-1.22.26-3.65.47-1.21m-.38-1.81-1.08,2.8-.28,3.92.27,1.62,2.82,3.18,4.43,3.42,1.3,1-.53,1.49a29.13,29.13,0,0,0,4.4.34,28.29,28.29,0,0,0,11.75-2.54l-1.05-.44,2-2.38,1.59-1.86.66-1.91-.07-.1a28.43,28.43,0,0,1-26.23-8.55Z" fill="#1e1e1e"/><path d="M26.24,18.69a29.67,29.67,0,0,1,1.86-3.18,30.52,30.52,0,0,0-3.17,2.1Z" fill="#1e1e1e"/><path d="M28.1,15.51a30.52,30.52,0,0,0-3.17,2.1l1.31,1.08a29.67,29.67,0,0,1,1.86-3.18Z" fill="#1e1e1e"/><path d="M26.74,19.11A26.11,26.11,0,0,1,66,50.74l1.64,1.9a28.4,28.4,0,0,0-42.72-35Z" fill="#1e1e1e"/><path d="M42.1,12.82a27.43,27.43,0,0,1,27.4,27.4A27.09,27.09,0,0,1,67.38,50.8l-.2-.24A27.11,27.11,0,0,0,26.79,17.85l-.23-.19A27.12,27.12,0,0,1,42.1,12.82m0-1a28.26,28.26,0,0,0-17.17,5.79l1.81,1.5A26.11,26.11,0,0,1,66,50.74l1.64,1.9A28.42,28.42,0,0,0,42.1,11.82Z" fill="#1e1e1e"/><path d="M66.49,54.78l-1.58-1.84a26.49,26.49,0,0,1-5.54,6.87l-1,2.74-1.74,2A28.49,28.49,0,0,0,66.49,54.78Z" fill="#1e1e1e"/><path d="M65.06,54.65l.19.22A27.22,27.22,0,0,1,60,60.93l.19-.55a27.56,27.56,0,0,0,4.83-5.73m-.15-1.71a26.49,26.49,0,0,1-5.54,6.87l-1,2.74-1.74,2a28.49,28.49,0,0,0,9.82-9.82l-1.58-1.84Z" fill="#1e1e1e"/><path d="M20.11,54.3l-.64,3.07a28.38,28.38,0,0,0,16,10.45,1.34,1.34,0,0,0,.12-.24L30.94,64l-.28-.32A26.24,26.24,0,0,1,20.11,54.3Z" fill="#1e1e1e"/><path d="M20.62,56.76A27.21,27.21,0,0,0,30,64.51l.16.18.06.07.07,0,.47.37a27.5,27.5,0,0,1-10.26-8.06l.08-.36m-.51-2.46-.64,3.07a28.38,28.38,0,0,0,16,10.45,1.34,1.34,0,0,0,.12-.24L30.94,64l-.28-.32a26.24,26.24,0,0,1-10.55-9.4Z" fill="#1e1e1e"/><path d="M18.42,51.25A26.15,26.15,0,0,1,16.74,34l-.29.29-1.61,1.61-.68-.68a28.89,28.89,0,0,0-.46,5,28.2,28.2,0,0,0,4,14.52Z" fill="#1e1e1e"/><path d="M15.18,36.94a25.78,25.78,0,0,0-.2,3.28,26.7,26.7,0,0,0,2.4,11.14l-.1.47A27.44,27.44,0,0,1,14.7,40.22a27,27,0,0,1,.17-3l.31-.31m1.56-3-.29.29-1.61,1.61-.68-.68a28.89,28.89,0,0,0-.46,5,28.2,28.2,0,0,0,4,14.52l.72-3.49A26.15,26.15,0,0,1,16.74,34Z" fill="#1e1e1e"/><path d="M18.53,29a26.25,26.25,0,0,1,6.4-8.39L23.28,19.2l-.22,0a28.34,28.34,0,0,0-8.3,13.4l.08.09Z" fill="#1e1e1e"/><path d="M23.18,20.41l.22.18a27,27,0,0,0-5.69,7.78l-.58.57a27.31,27.31,0,0,1,6.05-8.53m-.12-1.25a28.34,28.34,0,0,0-8.3,13.4l.08.09L18.53,29a26.25,26.25,0,0,1,6.4-8.39L23.28,19.2l-.22,0Z" fill="#1e1e1e"/><path d="M52.8,65.64l2-2.38.39-.45A26,26,0,0,1,42.1,66.35a26.7,26.7,0,0,1-5.09-.5l1.22.94-.53,1.49a29.13,29.13,0,0,0,4.4.34,28.29,28.29,0,0,0,11.75-2.54Z" fill="#1e1e1e"/><path d="M51.46,65.68l-.31.36.05,0a27.15,27.15,0,0,1-9.1,1.55,28.16,28.16,0,0,1-3-.17l.09-.26a29.16,29.16,0,0,0,3,.16,27.12,27.12,0,0,0,9.36-1.67m3.75-2.87A26,26,0,0,1,42.1,66.35a26.7,26.7,0,0,1-5.09-.5l1.22.94-.53,1.49a29.13,29.13,0,0,0,4.4.34,28.29,28.29,0,0,0,11.75-2.54l-1.05-.44,2-2.38.39-.45Z" fill="#1e1e1e"/><path d="M27.55,60.21l-.43-2.54.33-4.54,1.78-4.58.76-5.3s.75-4.93-.8-6.11C27.46,41,23.5,48,23.5,48l-2.82,3.58L19.07,59.3l.32,3.81,1.93,3.11,4.12,3.54,6.13.24s3.42-.88,4-2.42L30.94,64Z" fill="#1e1e1e"/><polygon points="63.61 51.43 58.93 47.12 58.01 44.79 59.73 41.38 59.92 41.05 59.78 40.89 57.59 40.45 53.38 43.18 53 45.63 53.41 48.13 54.01 49.77 54.81 51.4 58.03 56.75 59.58 59.2 58.41 62.55 56.55 64.74 59.47 65.94 63.31 66.73 66.01 65.12 67.98 63.35 68.31 61.16 67.72 56.2 63.61 51.43" fill="#1e1e1e"/><path d="M32.23,26.28,27.3,22.51l-4-3.31-5.41-.94L11.81,22.8l-.76,6.06,3.79,3.79,5.3-5.3L30,31.13h9.84s3.53-.49,4.55-1.51A84.32,84.32,0,0,1,36,27.35C33.82,26.68,32.23,26.28,32.23,26.28Z" fill="#1e1e1e"/><path d="M29.1,48.87a28.55,28.55,0,0,1-3.22-5.24C24.59,46,23.5,48,23.5,48l-2.82,3.58-1.21,5.84a28.38,28.38,0,0,0,16,10.45,1.34,1.34,0,0,0,.12-.24L30.94,64l-3.39-3.81-.43-2.54.33-4.54Z" fill="#1e1e1e"/><path d="M20.14,27.35l3.2,1.23a28.14,28.14,0,0,1,1.92-7.75l-2-1.63-.2,0a28.47,28.47,0,0,0-8.33,13.4l.09.09Z" fill="#1e1e1e"/><path d="M56.68,64.58a28.51,28.51,0,0,0,8.89-8.36,28.47,28.47,0,0,1-6.23,2.6l.24.38-1.17,3.35Z" fill="#1e1e1e"/><path d="M18.46,51.07l.11-.52.33-.42,2.71-3.45c.35-.62,1.76-3.14,3.16-5.77a28.37,28.37,0,0,1-1.6-9.4c0-.19,0-.37,0-.56L20.7,30l-4.25,4.25-1.61,1.61-.67-.67a27.76,27.76,0,0,0-.47,5,28.2,28.2,0,0,0,4,14.52Z" fill="#1e1e1e"/><path d="M52.8,65.64l2-2.38,1.59-1.86.66-1.91L57,59.38a27.7,27.7,0,0,1-5.43.53,28.33,28.33,0,0,1-20.8-9.07l-1.08,2.8-.28,3.92.27,1.62,2.82,3.18,4.43,3.42,1.3,1-.53,1.49a29.13,29.13,0,0,0,4.4.34,28.29,28.29,0,0,0,11.75-2.54Z" fill="#1e1e1e"/><path d="M26.24,18.69a29.67,29.67,0,0,1,1.86-3.18,30.52,30.52,0,0,0-3.17,2.1Z" fill="#1e1e1e"/><path d="M26.74,19.11A26.11,26.11,0,0,1,66,50.74l1.64,1.9a28.4,28.4,0,0,0-42.72-35Z" fill="#1e1e1e"/><path d="M66.49,54.78l-1.58-1.84a26.49,26.49,0,0,1-5.54,6.87l-1,2.74-1.74,2A28.49,28.49,0,0,0,66.49,54.78Z" fill="#1e1e1e"/><path d="M20.11,54.3l-.64,3.07a28.38,28.38,0,0,0,16,10.45,1.34,1.34,0,0,0,.12-.24L30.94,64l-.28-.32A26.24,26.24,0,0,1,20.11,54.3Z" fill="#1e1e1e"/><path d="M18.42,51.25A26.15,26.15,0,0,1,16.74,34l-.29.29-1.61,1.61-.68-.68a28.89,28.89,0,0,0-.46,5,28.2,28.2,0,0,0,4,14.52Z" fill="#1e1e1e"/><path d="M18.53,29a26.25,26.25,0,0,1,6.4-8.39L23.28,19.2l-.22,0a28.34,28.34,0,0,0-8.3,13.4l.08.09Z" fill="#1e1e1e"/><path d="M52.8,65.64l2-2.38.39-.45A26,26,0,0,1,42.1,66.35a26.7,26.7,0,0,1-5.09-.5l1.22.94-.53,1.49a29.13,29.13,0,0,0,4.4.34,28.29,28.29,0,0,0,11.75-2.54Z" fill="#1e1e1e"/></svg>