<svg xmlns="http://www.w3.org/2000/svg" viewBox="0 0 317 83.98"><title>Asset 13bg</title><rect width="82" height="82" fill="#1e1e1e"/><rect x="85" width="232" height="39.3" fill="#1e1e1e"/><rect x="85" y="43" width="150" height="39" fill="#1e1e1e"/><path d="M89.72,7.79h4.61V9.41H94L89.72,9Zm.13,23,3.68-.44h.64l3.64.44V32h-8Zm3.27-23h1.21l.27,10.72V32H93.12Zm0,0h2.48l9.11,22.08h-.9l8.8-22.08h1.55L104.5,32h-1.28Zm16.37,23,4.28-.44h.65l4.51.44V32h-9.44ZM112.93,21l0-13.18h2.47c-.09,3.65-.09,7.39-.09,11.16v1.89c0,3.72,0,7.47.09,11.16h-2.6C112.93,28.35,112.92,24.61,112.93,21Zm1.19-13.18H119V9l-4.51.44h-.32Z" fill="#fff"/><path d="M143.49,19.9c0,7.79-5.07,12.61-10.78,12.61S121.9,27.9,121.9,19.9c0-7.79,5.12-12.62,10.81-12.62S143.49,11.9,143.49,19.9ZM132.71,31.08c5.32,0,7.95-5.39,7.95-11.18S138,8.71,132.71,8.71s-8,5.4-8,11.19S127.38,31.08,132.71,31.08Z" fill="#fff"/><path d="M169.3,19.9c0,7.79-5.07,12.61-10.78,12.61S147.71,27.9,147.71,19.9c0-7.79,5.12-12.62,10.81-12.62S169.3,11.9,169.3,19.9ZM158.52,31.08c5.32,0,7.95-5.39,7.95-11.18s-2.63-11.19-7.95-11.19-8,5.4-8,11.19S153.2,31.08,158.52,31.08Z" fill="#fff"/><path d="M174.83,8.69l1.83.69L172.3,9V7.79h5l15.36,21.77v2.69h-1Zm-2.51,22.13,3.67-.44h.64l4.17.44V32h-8.48Zm3.13-23L176.92,9V32h-1.47Zm11.84,0h8.49V9l-3.56.44h-.65L187.29,9Zm3.87,0h1.47V32.25l-1.47-1.46Z" fill="#fff"/><path d="M198.77,9V7.79h4.83V9.41h-.32Zm5.15,21.41,4.51.44V32h-9.66V30.82l4.51-.44ZM202.37,19c0-3.72,0-7.46-.09-11.16h2.65c-.1,3.72-.1,7.33-.1,11.91v.78c0,4.08,0,7.83.1,11.52h-2.65c.09-3.65.09-7.39.09-11.16Zm1.23.52h4.76c3.82,0,6-2.27,6-5.33s-1.82-5-5.93-5H203.6V7.79h4.92c5.35,0,8.44,2.3,8.44,6.35,0,3.27-2.53,6-7,6.34l0-.3c2.64.29,3.87,1.42,4.81,4.33l2.11,6.55-.91-.58,3.81.34V32a9.54,9.54,0,0,1-2.48.29c-2.07,0-2.84-.54-3.24-1.93l-1.75-6.05c-.79-2.82-1.89-3.55-5-3.55H203.6Z" fill="#fff"/><path d="M222.13,9V7.79h9.67V9l-4.51.44h-.65Zm5.16,21.41,4.51.44V32h-9.67V30.82l4.51-.44ZM225.73,19c0-3.72,0-7.46-.09-11.16h2.65c-.1,3.65-.1,7.39-.1,11.16v1.89c0,3.72,0,7.47.1,11.16h-2.65c.09-3.65.09-7.39.09-11.16Z" fill="#fff"/><path d="M248.17,26.27c0-2.46-1.33-3.67-5-5.13l-1.36-.54c-3.74-1.47-6-3.55-6-7,0-4.14,3.44-6.36,7.63-6.36a9.48,9.48,0,0,1,5.85,1.84l-.18,4.55h-1.67l-.77-5.1,1.67.88v1.31a6.84,6.84,0,0,0-5-2c-3,0-5.29,1.47-5.29,4.41,0,2.46,1.59,3.87,4.29,4.93l1.42.55c5,1.95,6.6,3.92,6.6,7.24,0,4.16-3.47,6.67-8.25,6.67a13.27,13.27,0,0,1-6.9-1.92l.2-4.85h1.63l.76,5.24-1.74-.79V28.88c2.17,1.59,3.53,2.2,6,2.2C245.68,31.08,248.17,29.43,248.17,26.27Z" fill="#fff"/><path d="M253.6,9V7.79h4.83V9.41h-.32Zm4.83,21.41V32H253.6V30.82l4.51-.44ZM257.2,19c0-3.72,0-7.46-.1-11.16h2.65c-.09,3.65-.09,7.39-.09,11.42v1c0,4.38,0,8.13.09,11.82H257.1c.1-3.65.1-7.39.1-11.16ZM268.92,7.79l1.21,1.44h-11.7V7.79h12.76l.29,6.09h-1.6ZM266.5,20.36h-8.07V19h8.07Zm5.62,5.56L271.83,32h-13.4V30.56h12.35L269.56,32l1-6.08Zm-6.48-6.66.48-3.71h1.28v8.26h-1.28L265.64,20Z" fill="#fff"/><path d="M275.3,9V7.79h4.84V9.41h-.33Zm5.16,21.41,4.51.44V32H275.3V30.82l4.51-.44ZM278.91,19c0-3.72,0-7.46-.1-11.16h2.65c-.09,3.72-.09,7.33-.09,11.91v.78c0,4.08,0,7.83.09,11.52h-2.65c.1-3.65.1-7.39.1-11.16Zm1.23.52h4.75c3.83,0,6.05-2.27,6.05-5.33s-1.83-5-5.94-5h-4.86V7.79h4.91c5.36,0,8.44,2.3,8.44,6.35,0,3.27-2.53,6-7,6.34l0-.3c2.65.29,3.88,1.42,4.81,4.33l2.12,6.55-.91-.58,3.81.34V32a9.57,9.57,0,0,1-2.49.29c-2.06,0-2.84-.54-3.23-1.93l-1.75-6.05c-.8-2.82-1.9-3.55-5-3.55h-3.66Z" fill="#fff"/><path d="M311.45,26.27c0-2.46-1.32-3.67-5-5.13l-1.35-.54c-3.74-1.47-6-3.55-6-7,0-4.14,3.44-6.36,7.63-6.36a9.45,9.45,0,0,1,5.84,1.84l-.17,4.55h-1.67L310,8.57l1.66.88v1.31a6.81,6.81,0,0,0-5-2c-3,0-5.3,1.47-5.3,4.41,0,2.46,1.59,3.87,4.3,4.93l1.42.55c5,1.95,6.6,3.92,6.6,7.24,0,4.16-3.48,6.67-8.25,6.67a13.34,13.34,0,0,1-6.91-1.92l.21-4.85h1.62l.77,5.24-1.74-.79V28.88c2.17,1.59,3.53,2.2,6,2.2C309,31.08,311.45,29.43,311.45,26.27Z" fill="#fff"/><text transform="translate(88.67 75.33)" font-size="36" fill="#fff" font-family="Corbel-Bold, Corbel" font-weight="700">HexBrew</text><path d="M23.31,66.39,22.75,63l.42-6,2.36-6,1-7s1-6.5-1.05-8.07C23.19,41,18,50.2,18,50.2l-3.71,4.74L12.11,65.19l.43,5,2.54,4.12L20.53,79l8.09.32s4.52-1.16,5.24-3.19l-6.07-4.7Z" fill="#fff"/><polygon points="70.92 54.8 64.75 49.12 63.53 46.03 65.8 41.54 66.06 41.09 65.88 40.88 62.97 40.3 57.41 43.91 56.92 47.15 57.45 50.45 58.25 52.6 59.3 54.76 63.55 61.83 65.6 65.06 64.06 69.48 61.61 72.37 65.45 73.96 70.53 75 74.09 72.87 76.7 70.54 77.14 67.65 76.35 61.11 70.92 54.8" fill="#fff"/><path d="M29.48,21.59l-6.5-5-5.3-4.38L10.53,11l-8,6-1,8,5,5,7-7,13,5h13s4.65-.65,6-2a109.41,109.41,0,0,1-11-3C31.6,22.12,29.48,21.59,29.48,21.59Z" fill="#fff"/><path d="M25.36,51.43a38.24,38.24,0,0,1-4.25-6.92C19.41,47.66,18,50.2,18,50.2l-3.71,4.74-1.61,7.71a37.59,37.59,0,0,0,21.07,13.8,2.3,2.3,0,0,0,.15-.32l-6.07-4.7-4.48-5L22.75,63l.42-6Z" fill="#fff"/><path d="M13.53,23l4.22,1.62a37.17,37.17,0,0,1,2.54-10.23l-2.61-2.15-.27-.05a37.55,37.55,0,0,0-11,17.69l.12.12Z" fill="#fff"/><path d="M61.78,72.17A37.75,37.75,0,0,0,73.51,61.12a37.56,37.56,0,0,1-8.23,3.44l.32.5-1.54,4.43Z" fill="#fff"/><path d="M11.31,54.33l.14-.69.44-.56,3.57-4.55c.46-.82,2.33-4.14,4.18-7.62A37.51,37.51,0,0,1,17.53,28.5c0-.25,0-.49,0-.74L14.27,26.5,8.65,32.12,6.53,34.24l-.89-.89A37.26,37.26,0,0,0,10.3,59.17Z" fill="#fff"/><path d="M56.65,73.57l2.67-3.14L61.41,68l.88-2.52-.09-.14A37.5,37.5,0,0,1,27.57,54l-1.43,3.69-.37,5.18L26.13,65l3.72,4.19,5.85,4.52,1.72,1.33-.7,2a38.28,38.28,0,0,0,5.81.45A37.39,37.39,0,0,0,58,74.14Z" fill="#fff"/><path d="M21.58,11.57A38,38,0,0,1,24,7.38a37.47,37.47,0,0,0-4.19,2.77Z" fill="#fff"/><path d="M22.24,12.12A34.48,34.48,0,0,1,74.1,53.89l2.16,2.51A37.5,37.5,0,0,0,19.85,10.14Z" fill="#fff"/><path d="M74.73,59.22,72.65,56.8a34.88,34.88,0,0,1-7.32,9.06l-1.27,3.63-2.3,2.7A37.71,37.71,0,0,0,74.73,59.22Z" fill="#fff"/><path d="M13.49,58.59l-.85,4.06a37.59,37.59,0,0,0,21.07,13.8,2.3,2.3,0,0,0,.15-.32l-6.07-4.7L27.42,71A34.67,34.67,0,0,1,13.49,58.59Z" fill="#fff"/><path d="M11.26,54.56A34.41,34.41,0,0,1,9,31.73l-.39.39L6.53,34.24l-.9-.9A37.44,37.44,0,0,0,10.3,59.17Z" fill="#fff"/><path d="M11.4,25.12A35,35,0,0,1,19.85,14l-2.17-1.79-.3-.05a37.43,37.43,0,0,0-11,17.7l.11.11Z" fill="#fff"/><path d="M56.65,73.57l2.67-3.14.51-.6a34.42,34.42,0,0,1-24,4l1.61,1.24-.7,2a38.28,38.28,0,0,0,5.81.45A37.39,37.39,0,0,0,58,74.14Z" fill="#fff"/></svg>