<svg xmlns="http://www.w3.org/2000/svg" viewBox="0 0 317 83.98"><title>Asset 14bg</title><rect width="82" height="82" fill="#1e1e1e"/><rect x="85" width="232" height="39.3" fill="#1e1e1e"/><rect x="85" y="43" width="150" height="39" fill="#1e1e1e"/><path d="M89.72,7.79h4.61V9.41H94L89.72,9Zm.13,23,3.68-.44h.64l3.64.44V32h-8Zm3.27-23h1.21l.27,10.72V32H93.12Zm0,0h2.48l9.11,22.08h-.9l8.8-22.08h1.55L104.5,32h-1.28Zm16.37,23,4.28-.44h.65l4.51.44V32h-9.44ZM112.93,21l0-13.18h2.47c-.09,3.65-.09,7.39-.09,11.16v1.89c0,3.72,0,7.47.09,11.16h-2.6C112.93,28.35,112.92,24.61,112.93,21Zm1.19-13.18H119V9l-4.51.44h-.32Z" fill="#fff"/><path d="M143.49,19.9c0,7.79-5.07,12.61-10.78,12.61S121.9,27.9,121.9,19.9c0-7.79,5.12-12.62,10.81-12.62S143.49,11.9,143.49,19.9ZM132.71,31.08c5.32,0,7.95-5.39,7.95-11.18S138,8.71,132.71,8.71s-8,5.4-8,11.19S127.38,31.08,132.71,31.08Z" fill="#fff"/><path d="M169.3,19.9c0,7.79-5.07,12.61-10.78,12.61S147.71,27.9,147.71,19.9c0-7.79,5.12-12.62,10.81-12.62S169.3,11.9,169.3,19.9ZM158.52,31.08c5.32,0,7.95-5.39,7.95-11.18s-2.63-11.19-7.95-11.19-8,5.4-8,11.19S153.2,31.08,158.52,31.08Z" fill="#fff"/><path d="M174.83,8.69l1.83.69L172.3,9V7.79h5l15.36,21.77v2.69h-1Zm-2.51,22.13,3.67-.44h.64l4.17.44V32h-8.48Zm3.13-23L176.92,9V32h-1.47Zm11.84,0h8.49V9l-3.56.44h-.65L187.29,9Zm3.87,0h1.47V32.25l-1.47-1.46Z" fill="#fff"/><path d="M198.77,9V7.79h4.83V9.41h-.32Zm5.15,21.41,4.51.44V32h-9.66V30.82l4.51-.44ZM202.37,19c0-3.72,0-7.46-.09-11.16h2.65c-.1,3.72-.1,7.33-.1,11.91v.78c0,4.08,0,7.83.1,11.52h-2.65c.09-3.65.09-7.39.09-11.16Zm1.23.52h4.76c3.82,0,6-2.27,6-5.33s-1.82-5-5.93-5H203.6V7.79h4.92c5.35,0,8.44,2.3,8.44,6.35,0,3.27-2.53,6-7,6.34l0-.3c2.64.29,3.87,1.42,4.81,4.33l2.11,6.55-.91-.58,3.81.34V32a9.54,9.54,0,0,1-2.48.29c-2.07,0-2.84-.54-3.24-1.93l-1.75-6.05c-.79-2.82-1.89-3.55-5-3.55H203.6Z" fill="#fff"/><path d="M222.13,9V7.79h9.67V9l-4.51.44h-.65Zm5.16,21.41,4.51.44V32h-9.67V30.82l4.51-.44ZM225.73,19c0-3.72,0-7.46-.09-11.16h2.65c-.1,3.65-.1,7.39-.1,11.16v1.89c0,3.72,0,7.47.1,11.16h-2.65c.09-3.65.09-7.39.09-11.16Z" fill="#fff"/><path d="M248.17,26.27c0-2.46-1.33-3.67-5-5.13l-1.36-.54c-3.74-1.47-6-3.55-6-7,0-4.14,3.44-6.36,7.63-6.36a9.48,9.48,0,0,1,5.85,1.84l-.18,4.55h-1.67l-.77-5.1,1.67.88v1.31a6.84,6.84,0,0,0-5-2c-3,0-5.29,1.47-5.29,4.41,0,2.46,1.59,3.87,4.29,4.93l1.42.55c5,1.95,6.6,3.92,6.6,7.24,0,4.16-3.47,6.67-8.25,6.67a13.27,13.27,0,0,1-6.9-1.92l.2-4.85h1.63l.76,5.24-1.74-.79V28.88c2.17,1.59,3.53,2.2,6,2.2C245.68,31.08,248.17,29.43,248.17,26.27Z" fill="#fff"/><path d="M253.6,9V7.79h4.83V9.41h-.32Zm4.83,21.41V32H253.6V30.82l4.51-.44ZM257.2,19c0-3.72,0-7.46-.1-11.16h2.65c-.09,3.65-.09,7.39-.09,11.42v1c0,4.38,0,8.13.09,11.82H257.1c.1-3.65.1-7.39.1-11.16ZM268.92,7.79l1.21,1.44h-11.7V7.79h12.76l.29,6.09h-1.6ZM266.5,20.36h-8.07V19h8.07Zm5.62,5.56L271.83,32h-13.4V30.56h12.35L269.56,32l1-6.08Zm-6.48-6.66.48-3.71h1.28v8.26h-1.28L265.64,20Z" fill="#fff"/><path d="M275.3,9V7.79h4.84V9.41h-.33Zm5.16,21.41,4.51.44V32H275.3V30.82l4.51-.44ZM278.91,19c0-3.72,0-7.46-.1-11.16h2.65c-.09,3.72-.09,7.33-.09,11.91v.78c0,4.08,0,7.83.09,11.52h-2.65c.1-3.65.1-7.39.1-11.16Zm1.23.52h4.75c3.83,0,6.05-2.27,6.05-5.33s-1.83-5-5.94-5h-4.86V7.79h4.91c5.36,0,8.44,2.3,8.44,6.35,0,3.27-2.53,6-7,6.34l0-.3c2.65.29,3.88,1.42,4.81,4.33l2.12,6.55-.91-.58,3.81.34V32a9.57,9.57,0,0,1-2.49.29c-2.06,0-2.84-.54-3.23-1.93l-1.75-6.05c-.8-2.82-1.9-3.55-5-3.55h-3.66Z" fill="#fff"/><path d="M311.45,26.27c0-2.46-1.32-3.67-5-5.13l-1.35-.54c-3.74-1.47-6-3.55-6-7,0-4.14,3.44-6.36,7.63-6.36a9.45,9.45,0,0,1,5.84,1.84l-.17,4.55h-1.67L310,8.57l1.66.88v1.31a6.81,6.81,0,0,0-5-2c-3,0-5.3,1.47-5.3,4.41,0,2.46,1.59,3.87,4.3,4.93l1.42.55c5,1.95,6.6,3.92,6.6,7.24,0,4.16-3.48,6.67-8.25,6.67a13.34,13.34,0,0,1-6.91-1.92l.21-4.85h1.62l.77,5.24-1.74-.79V28.88c2.17,1.59,3.53,2.2,6,2.2C309,31.08,311.45,29.43,311.45,26.27Z" fill="#fff"/><text transform="translate(88.67 75.33)" font-size="36" fill="#fff" font-family="Corbel-Bold, Corbel" font-weight="700">HexBrew</text><path d="M27.55,60.21l-.43-2.54.33-4.54,1.78-4.58.76-5.3s.75-4.93-.8-6.11C27.46,41,23.5,48,23.5,48l-2.82,3.58L19.07,59.3l.32,3.81,1.93,3.11,4.12,3.54,6.13.24s3.42-.88,4-2.42L30.94,64Z" fill="#fff"/><polygon points="63.61 51.43 58.93 47.12 58.01 44.79 59.73 41.38 59.92 41.05 59.78 40.89 57.59 40.45 53.38 43.18 53 45.63 53.41 48.13 54.01 49.77 54.81 51.4 58.03 56.75 59.58 59.2 58.41 62.55 56.55 64.74 59.47 65.94 63.31 66.73 66.01 65.12 67.98 63.35 68.31 61.16 67.72 56.2 63.61 51.43" fill="#fff"/><path d="M32.23,26.28,27.3,22.51l-4-3.31-5.41-.94L11.81,22.8l-.76,6.06,3.79,3.79,5.3-5.3L30,31.13h9.84s3.53-.49,4.55-1.51A84.32,84.32,0,0,1,36,27.35C33.82,26.68,32.23,26.28,32.23,26.28Z" fill="#fff"/><path d="M29.1,48.87a28.55,28.55,0,0,1-3.22-5.24C24.59,46,23.5,48,23.5,48l-2.82,3.58-1.21,5.84a28.38,28.38,0,0,0,16,10.45,1.34,1.34,0,0,0,.12-.24L30.94,64l-3.39-3.81-.43-2.54.33-4.54Z" fill="#fff"/><path d="M20.14,27.35l3.2,1.23a28.14,28.14,0,0,1,1.92-7.75l-2-1.63-.2,0a28.47,28.47,0,0,0-8.33,13.4l.09.09Z" fill="#fff"/><path d="M56.68,64.58a28.51,28.51,0,0,0,8.89-8.36,28.47,28.47,0,0,1-6.23,2.6l.24.38-1.17,3.35Z" fill="#fff"/><path d="M18.46,51.07l.11-.52.33-.42,2.71-3.45c.35-.62,1.76-3.14,3.16-5.77a28.37,28.37,0,0,1-1.6-9.4c0-.19,0-.37,0-.56L20.7,30l-4.25,4.25-1.61,1.61-.67-.67a27.76,27.76,0,0,0-.47,5,28.2,28.2,0,0,0,4,14.52Z" fill="#fff"/><path d="M52.8,65.64l2-2.38,1.59-1.86.66-1.91L57,59.38a27.7,27.7,0,0,1-5.43.53,28.33,28.33,0,0,1-20.8-9.07l-1.08,2.8-.28,3.92.27,1.62,2.82,3.18,4.43,3.42,1.3,1-.53,1.49a29.13,29.13,0,0,0,4.4.34,28.29,28.29,0,0,0,11.75-2.54Z" fill="#fff"/><path d="M26.24,18.69a29.67,29.67,0,0,1,1.86-3.18,30.52,30.52,0,0,0-3.17,2.1Z" fill="#fff"/><path d="M26.74,19.11A26.11,26.11,0,0,1,66,50.74l1.64,1.9a28.4,28.4,0,0,0-42.72-35Z" fill="#fff"/><path d="M66.49,54.78l-1.58-1.84a26.49,26.49,0,0,1-5.54,6.87l-1,2.74-1.74,2A28.49,28.49,0,0,0,66.49,54.78Z" fill="#fff"/><path d="M20.11,54.3l-.64,3.07a28.38,28.38,0,0,0,16,10.45,1.34,1.34,0,0,0,.12-.24L30.94,64l-.28-.32A26.24,26.24,0,0,1,20.11,54.3Z" fill="#fff"/><path d="M18.42,51.25A26.15,26.15,0,0,1,16.74,34l-.29.29-1.61,1.61-.68-.68a28.89,28.89,0,0,0-.46,5,28.2,28.2,0,0,0,4,14.52Z" fill="#fff"/><path d="M18.53,29a26.25,26.25,0,0,1,6.4-8.39L23.28,19.2l-.22,0a28.34,28.34,0,0,0-8.3,13.4l.08.09Z" fill="#fff"/><path d="M52.8,65.64l2-2.38.39-.45A26,26,0,0,1,42.1,66.35a26.7,26.7,0,0,1-5.09-.5l1.22.94-.53,1.49a29.13,29.13,0,0,0,4.4.34,28.29,28.29,0,0,0,11.75-2.54Z" fill="#fff"/></svg>