<svg xmlns="http://www.w3.org/2000/svg" viewBox="0 0 317 82"><title>Asset 12bg</title><rect width="82" height="82" fill="#fff"/><rect x="85" width="232" height="39.3" fill="#fff"/><rect x="85" y="43" width="150" height="39" fill="#fff"/><path d="M89.72,7.79h4.61V9.41H94L89.72,9Zm.13,23,3.68-.44h.64l3.64.44V32h-8Zm3.27-23h1.21l.27,10.72V32H93.12Zm0,0h2.48l9.11,22.08h-.9l8.8-22.08h1.55L104.5,32h-1.28Zm16.37,23,4.28-.44h.65l4.51.44V32h-9.44ZM112.93,21l0-13.18h2.47c-.09,3.65-.09,7.39-.09,11.16v1.89c0,3.72,0,7.47.09,11.16h-2.6C112.93,28.35,112.92,24.61,112.93,21Zm1.19-13.18H119V9l-4.51.44h-.32Z" fill="#1e1e1e"/><path d="M143.49,19.9c0,7.79-5.07,12.61-10.78,12.61S121.9,27.9,121.9,19.9c0-7.79,5.12-12.62,10.81-12.62S143.49,11.9,143.49,19.9ZM132.71,31.08c5.32,0,7.95-5.39,7.95-11.18S138,8.71,132.71,8.71s-8,5.4-8,11.19S127.38,31.08,132.71,31.08Z" fill="#1e1e1e"/><path d="M169.3,19.9c0,7.79-5.07,12.61-10.78,12.61S147.71,27.9,147.71,19.9c0-7.79,5.12-12.62,10.81-12.62S169.3,11.9,169.3,19.9ZM158.52,31.08c5.32,0,7.95-5.39,7.95-11.18s-2.63-11.19-7.95-11.19-8,5.4-8,11.19S153.2,31.08,158.52,31.08Z" fill="#1e1e1e"/><path d="M174.83,8.69l1.83.69L172.3,9V7.79h5l15.36,21.77v2.69h-1Zm-2.51,22.13,3.67-.44h.64l4.17.44V32h-8.48Zm3.13-23L176.92,9V32h-1.47Zm11.84,0h8.49V9l-3.56.44h-.65L187.29,9Zm3.87,0h1.47V32.25l-1.47-1.46Z" fill="#1e1e1e"/><path d="M198.77,9V7.79h4.83V9.41h-.32Zm5.15,21.41,4.51.44V32h-9.66V30.82l4.51-.44ZM202.37,19c0-3.72,0-7.46-.09-11.16h2.65c-.1,3.72-.1,7.33-.1,11.91v.78c0,4.08,0,7.83.1,11.52h-2.65c.09-3.65.09-7.39.09-11.16Zm1.23.52h4.76c3.82,0,6-2.27,6-5.33s-1.82-5-5.93-5H203.6V7.79h4.92c5.35,0,8.44,2.3,8.44,6.35,0,3.27-2.53,6-7,6.34l0-.3c2.64.29,3.87,1.42,4.81,4.33l2.11,6.55-.91-.58,3.81.34V32a9.54,9.54,0,0,1-2.48.29c-2.07,0-2.84-.54-3.24-1.93l-1.75-6.05c-.79-2.82-1.89-3.55-5-3.55H203.6Z" fill="#1e1e1e"/><path d="M222.13,9V7.79h9.67V9l-4.51.44h-.65Zm5.16,21.41,4.51.44V32h-9.67V30.82l4.51-.44ZM225.73,19c0-3.72,0-7.46-.09-11.16h2.65c-.1,3.65-.1,7.39-.1,11.16v1.89c0,3.72,0,7.47.1,11.16h-2.65c.09-3.65.09-7.39.09-11.16Z" fill="#1e1e1e"/><path d="M248.17,26.27c0-2.46-1.33-3.67-5-5.13l-1.36-.54c-3.74-1.47-6-3.55-6-7,0-4.14,3.44-6.36,7.63-6.36a9.48,9.48,0,0,1,5.85,1.84l-.18,4.55h-1.67l-.77-5.1,1.67.88v1.31a6.84,6.84,0,0,0-5-2c-3,0-5.29,1.47-5.29,4.41,0,2.46,1.59,3.87,4.29,4.93l1.42.55c5,1.95,6.6,3.92,6.6,7.24,0,4.16-3.47,6.67-8.25,6.67a13.27,13.27,0,0,1-6.9-1.92l.2-4.85h1.63l.76,5.24-1.74-.79V28.88c2.17,1.59,3.53,2.2,6,2.2C245.68,31.08,248.17,29.43,248.17,26.27Z" fill="#1e1e1e"/><path d="M253.6,9V7.79h4.83V9.41h-.32Zm4.83,21.41V32H253.6V30.82l4.51-.44ZM257.2,19c0-3.72,0-7.46-.1-11.16h2.65c-.09,3.65-.09,7.39-.09,11.42v1c0,4.38,0,8.13.09,11.82H257.1c.1-3.65.1-7.39.1-11.16ZM268.92,7.79l1.21,1.44h-11.7V7.79h12.76l.29,6.09h-1.6ZM266.5,20.36h-8.07V19h8.07Zm5.62,5.56L271.83,32h-13.4V30.56h12.35L269.56,32l1-6.08Zm-6.48-6.66.48-3.71h1.28v8.26h-1.28L265.64,20Z" fill="#1e1e1e"/><path d="M275.3,9V7.79h4.84V9.41h-.33Zm5.16,21.41,4.51.44V32H275.3V30.82l4.51-.44ZM278.91,19c0-3.72,0-7.46-.1-11.16h2.65c-.09,3.72-.09,7.33-.09,11.91v.78c0,4.08,0,7.83.09,11.52h-2.65c.1-3.65.1-7.39.1-11.16Zm1.23.52h4.75c3.83,0,6.05-2.27,6.05-5.33s-1.83-5-5.94-5h-4.86V7.79h4.91c5.36,0,8.44,2.3,8.44,6.35,0,3.27-2.53,6-7,6.34l0-.3c2.65.29,3.88,1.42,4.81,4.33l2.12,6.55-.91-.58,3.81.34V32a9.57,9.57,0,0,1-2.49.29c-2.06,0-2.84-.54-3.23-1.93l-1.75-6.05c-.8-2.82-1.9-3.55-5-3.55h-3.66Z" fill="#1e1e1e"/><path d="M311.45,26.27c0-2.46-1.32-3.67-5-5.13l-1.35-.54c-3.74-1.47-6-3.55-6-7,0-4.14,3.44-6.36,7.63-6.36a9.45,9.45,0,0,1,5.84,1.84l-.17,4.55h-1.67L310,8.57l1.66.88v1.31a6.81,6.81,0,0,0-5-2c-3,0-5.3,1.47-5.3,4.41,0,2.46,1.59,3.87,4.3,4.93l1.42.55c5,1.95,6.6,3.92,6.6,7.24,0,4.16-3.48,6.67-8.25,6.67a13.34,13.34,0,0,1-6.91-1.92l.21-4.85h1.62l.77,5.24-1.74-.79V28.88c2.17,1.59,3.53,2.2,6,2.2C309,31.08,311.45,29.43,311.45,26.27Z" fill="#1e1e1e"/><path d="M95.79,61.5h10.89V51.81H111V75.33h-4.31V65.1H95.79V75.33H91.48V51.81h4.31Z" fill="#1e1e1e"/><path d="M124.86,72.42a14.16,14.16,0,0,0,2.53-.25,19.5,19.5,0,0,0,2.67-.7v3.32a12.59,12.59,0,0,1-2.48.67,18.56,18.56,0,0,1-3.46.31,12.41,12.41,0,0,1-3.43-.46,7.34,7.34,0,0,1-2.84-1.51,7.25,7.25,0,0,1-1.93-2.68,10.24,10.24,0,0,1-.71-4,11.18,11.18,0,0,1,.67-4.06,8.29,8.29,0,0,1,1.79-2.89,7.37,7.37,0,0,1,2.58-1.71,8.07,8.07,0,0,1,3-.57,8.67,8.67,0,0,1,3,.49,5.93,5.93,0,0,1,2.36,1.55,7.28,7.28,0,0,1,1.55,2.71,12.77,12.77,0,0,1,.55,3.93c0,.59,0,1.09-.05,1.5H119.46a5.21,5.21,0,0,0,.53,2,3.8,3.8,0,0,0,1.15,1.35,4.77,4.77,0,0,0,1.66.76A8.43,8.43,0,0,0,124.86,72.42Zm-1.67-11.29a3.18,3.18,0,0,0-2.47,1.08,3.86,3.86,0,0,0-.71,1.17,5.57,5.57,0,0,0-.35,1.42h6.69a4.73,4.73,0,0,0-.2-1.42,3.42,3.42,0,0,0-.6-1.17,2.81,2.81,0,0,0-1-.79A3.12,3.12,0,0,0,123.19,61.13Z" fill="#1e1e1e"/><path d="M141.61,69.41l-4.39,5.92h-4.78l6.73-8.68-6.33-8.35h4.91l4,5.63,4-5.63h4.92l-6.5,8.33,6.68,8.7H146Z" fill="#1e1e1e"/><path d="M170.88,58.07a5.82,5.82,0,0,1-.69,2.81A5.23,5.23,0,0,1,167.93,63v.07a7.71,7.71,0,0,1,1.61.77,5.08,5.08,0,0,1,1.24,1.11,4.68,4.68,0,0,1,.81,1.45,5.17,5.17,0,0,1,.29,1.81,6.94,6.94,0,0,1-.27,1.84,5.73,5.73,0,0,1-1,1.91,7.73,7.73,0,0,1-1.83,1.7,9.6,9.6,0,0,1-2.88,1.23c-.29.07-.61.13-1,.19s-.73.11-1.15.15-.89.07-1.41.09l-1.74,0h-6.83V51.81H162a13.87,13.87,0,0,1,4.22.53,7.68,7.68,0,0,1,2.07,1,6.43,6.43,0,0,1,1.45,1.39,5.48,5.48,0,0,1,.85,1.62A5.65,5.65,0,0,1,170.88,58.07ZM162,61.5a7.48,7.48,0,0,0,2.62-.35A2.76,2.76,0,0,0,166,60a3.19,3.19,0,0,0,.41-1.61,3,3,0,0,0-.47-1.66,2.91,2.91,0,0,0-1.62-1.08,6.32,6.32,0,0,0-1.11-.2q-.63-.06-1.56-.06h-3.54V61.5Zm-3.89,3.6v6.63H161c.75,0,1.39,0,1.93-.06a9.24,9.24,0,0,0,1.39-.2,5.86,5.86,0,0,0,1.49-.52,3.81,3.81,0,0,0,1-.74,2.51,2.51,0,0,0,.53-.92,3.62,3.62,0,0,0,.15-1.06,2.84,2.84,0,0,0-.54-1.72,3.28,3.28,0,0,0-1.71-1.11,6.8,6.8,0,0,0-1.19-.23c-.46,0-1-.07-1.76-.07Z" fill="#1e1e1e"/><path d="M185.87,61.6h-.35a9.13,9.13,0,0,0-3.36.58,4.6,4.6,0,0,0-2.24,1.75v11.4h-4.17v-17h3.44l.39,2.37h.07a5.37,5.37,0,0,1,2-2,6.08,6.08,0,0,1,3.1-.75,6.79,6.79,0,0,1,1.09.07Z" fill="#1e1e1e"/><path d="M197.11,72.42a14.16,14.16,0,0,0,2.53-.25,19.5,19.5,0,0,0,2.67-.7v3.32a12.8,12.8,0,0,1-2.48.67,18.63,18.63,0,0,1-3.46.31,12.48,12.48,0,0,1-3.44-.46,7.41,7.41,0,0,1-2.84-1.51,7.12,7.12,0,0,1-1.92-2.68,10.06,10.06,0,0,1-.71-4,11.41,11.41,0,0,1,.66-4.06,8.46,8.46,0,0,1,1.8-2.89,7.42,7.42,0,0,1,2.57-1.71,8.16,8.16,0,0,1,3-.57,8.67,8.67,0,0,1,3,.49,5.89,5.89,0,0,1,2.35,1.55,7.15,7.15,0,0,1,1.55,2.71,12.47,12.47,0,0,1,.55,3.93c0,.59,0,1.09,0,1.5H191.71a5,5,0,0,0,.53,2,3.7,3.7,0,0,0,1.15,1.35,4.68,4.68,0,0,0,1.66.76A8.38,8.38,0,0,0,197.11,72.42Zm-1.67-11.29A3.18,3.18,0,0,0,193,62.21a4.1,4.1,0,0,0-.72,1.17,6,6,0,0,0-.35,1.42h6.7a5.08,5.08,0,0,0-.2-1.42,3.81,3.81,0,0,0-.6-1.17,2.81,2.81,0,0,0-1-.79A3.18,3.18,0,0,0,195.44,61.13Z" fill="#1e1e1e"/><path d="M218,62.92q-.48,2.55-1.16,4.94l-2,7.47h-4.1l-6-17h4.4l2.19,7.14c.51,1.65.95,3.25,1.34,4.8h.07c.33-1.5.72-3.1,1.18-4.8l1.95-7.14h4.39l1.92,7.14c.41,1.51.8,3.11,1.18,4.8h.07q.6-2.38,1.33-4.8l2.2-7.14h4.4l-6,17h-4.1l-2.06-7.47q-.69-2.51-1.16-4.94Z" fill="#1e1e1e"/><path d="M23.31,66.39,22.75,63l.42-6,2.36-6,1-7s1-6.5-1.05-8.07C23.19,41,18,50.2,18,50.2l-3.71,4.74L12.11,65.19l.43,5,2.54,4.12L20.53,79l8.09.32s4.52-1.16,5.24-3.19l-6.07-4.7Z" fill="#1e1e1e"/><polygon points="70.92 54.8 64.75 49.12 63.53 46.03 65.8 41.54 66.06 41.09 65.88 40.88 62.97 40.3 57.41 43.91 56.92 47.15 57.45 50.45 58.25 52.6 59.3 54.76 63.55 61.83 65.6 65.06 64.06 69.48 61.61 72.37 65.45 73.96 70.53 75 74.09 72.87 76.7 70.54 77.14 67.65 76.35 61.11 70.92 54.8" fill="#1e1e1e"/><path d="M29.48,21.59l-6.5-5-5.3-4.38L10.53,11l-8,6-1,8,5,5,7-7,13,5h13s4.65-.65,6-2a109.41,109.41,0,0,1-11-3C31.6,22.12,29.48,21.59,29.48,21.59Z" fill="#1e1e1e"/><path d="M25.36,51.43a38.24,38.24,0,0,1-4.25-6.92C19.41,47.66,18,50.2,18,50.2l-3.71,4.74-1.61,7.71a37.59,37.59,0,0,0,21.07,13.8,2.3,2.3,0,0,0,.15-.32l-6.07-4.7-4.48-5L22.75,63l.42-6Z" fill="#1e1e1e"/><path d="M13.53,23l4.22,1.62a37.17,37.17,0,0,1,2.54-10.23l-2.61-2.15-.27-.05a37.55,37.55,0,0,0-11,17.69l.12.12Z" fill="#1e1e1e"/><path d="M61.78,72.17A37.75,37.75,0,0,0,73.51,61.12a37.56,37.56,0,0,1-8.23,3.44l.32.5-1.54,4.43Z" fill="#1e1e1e"/><path d="M11.31,54.33l.14-.69.44-.56,3.57-4.55c.46-.82,2.33-4.14,4.18-7.62A37.51,37.51,0,0,1,17.53,28.5c0-.25,0-.49,0-.74L14.27,26.5,8.65,32.12,6.53,34.24l-.89-.89A37.26,37.26,0,0,0,10.3,59.17Z" fill="#1e1e1e"/><path d="M56.65,73.57l2.67-3.14L61.41,68l.88-2.52-.09-.14A37.5,37.5,0,0,1,27.57,54l-1.43,3.69-.37,5.18L26.13,65l3.72,4.19,5.85,4.52,1.72,1.33-.7,2a38.28,38.28,0,0,0,5.81.45A37.39,37.39,0,0,0,58,74.14Z" fill="#1e1e1e"/><path d="M21.58,11.57A38,38,0,0,1,24,7.38a37.47,37.47,0,0,0-4.19,2.77Z" fill="#1e1e1e"/><path d="M22.24,12.12A34.48,34.48,0,0,1,74.1,53.89l2.16,2.51A37.5,37.5,0,0,0,19.85,10.14Z" fill="#1e1e1e"/><path d="M74.73,59.22,72.65,56.8a34.88,34.88,0,0,1-7.32,9.06l-1.27,3.63-2.3,2.7A37.71,37.71,0,0,0,74.73,59.22Z" fill="#1e1e1e"/><path d="M13.49,58.59l-.85,4.06a37.59,37.59,0,0,0,21.07,13.8,2.3,2.3,0,0,0,.15-.32l-6.07-4.7L27.42,71A34.67,34.67,0,0,1,13.49,58.59Z" fill="#1e1e1e"/><path d="M11.26,54.56A34.41,34.41,0,0,1,9,31.73l-.39.39L6.53,34.24l-.9-.9A37.44,37.44,0,0,0,10.3,59.17Z" fill="#1e1e1e"/><path d="M11.4,25.12A35,35,0,0,1,19.85,14l-2.17-1.79-.3-.05a37.43,37.43,0,0,0-11,17.7l.11.11Z" fill="#1e1e1e"/><path d="M56.65,73.57l2.67-3.14.51-.6a34.42,34.42,0,0,1-24,4l1.61,1.24-.7,2a38.28,38.28,0,0,0,5.81.45A37.39,37.39,0,0,0,58,74.14Z" fill="#1e1e1e"/></svg>