<svg xmlns="http://www.w3.org/2000/svg" viewBox="0 0 359 82.98"><title>Asset 16bg</title><rect width="82" height="82" fill="#1e1e1e"/><rect x="84.64" y="50" width="113.36" height="32" fill="#1e1e1e"/><rect x="84.64" width="274.36" height="47" fill="#1e1e1e"/><path d="M86.7,9.41h5.56v1.95h-.4l-5.16-.53Zm.16,27.79,4.43-.53h.78l4.39.53v1.42h-9.6ZM90.8,9.41h1.46l.33,12.93V38.62H90.8Zm0,0h3l11,26.64h-1.09L114.34,9.41h1.88L104.54,38.62H103ZM110.59,37.2l5.16-.53h.78l5.44.53v1.42H110.59Zm4.12-11.89.05-15.9h3c-.11,4.4-.11,8.92-.11,13.46v2.28c0,4.49,0,9,.11,13.47H114.6C114.71,34.22,114.69,29.7,114.71,25.31Zm1.43-15.9H122v1.42l-5.44.53h-.39Z" fill="#fff"/><path d="M151.59,24c0,9.41-6.12,15.22-13,15.22s-13-5.56-13-15.22c0-9.4,6.18-15.23,13-15.23S151.59,14.37,151.59,24Zm-13,13.49c6.42,0,9.59-6.5,9.59-13.49s-3.17-13.5-9.59-13.5S129,17,129,24,132.16,37.51,138.58,37.51Z" fill="#fff"/><path d="M182.74,24c0,9.41-6.12,15.22-13,15.22s-13-5.56-13-15.22c0-9.4,6.18-15.23,13-15.23S182.74,14.37,182.74,24Zm-13,13.49c6.42,0,9.6-6.5,9.6-13.49s-3.18-13.5-9.6-13.5S160.1,17,160.1,24,163.31,37.51,169.73,37.51Z" fill="#fff"/><path d="M189.42,10.49l2.2.84-5.26-.5V9.41h6l18.53,26.27v3.25h-1.2Zm-3,26.71,4.44-.53h.77l5,.53v1.42H186.38Zm3.79-27.79,1.76,1.5V38.62h-1.76Zm14.29,0H214.7v1.42l-4.3.53h-.78l-5.16-.53Zm4.67,0h1.76V38.93l-1.76-1.77Z" fill="#fff"/><path d="M218.31,10.83V9.41h5.83v1.95h-.39Zm6.22,25.84,5.44.53v1.42H218.31V37.2l5.44-.53Zm-1.88-13.8c0-4.49,0-9-.11-13.46h3.2c-.12,4.48-.12,8.83-.12,14.37v.94c0,4.92,0,9.44.12,13.9h-3.2c.11-4.4.11-8.92.11-13.47Zm1.49.63h5.74c4.62,0,7.3-2.74,7.3-6.43S235,11,230,11h-5.88V9.41h5.94c6.45,0,10.18,2.77,10.18,7.66,0,3.94-3.06,7.21-8.48,7.65l0-.36c3.19.35,4.68,1.71,5.8,5.22l2.55,7.9-1.09-.7,4.6.42v1.42a11.23,11.23,0,0,1-3,.36c-2.48,0-3.42-.67-3.9-2.34l-2.11-7.3c-1-3.41-2.29-4.28-6-4.28h-4.42Z" fill="#fff"/><path d="M246.5,10.83V9.41h11.67v1.42l-5.45.53H252Zm6.22,25.84,5.45.53v1.42H246.5V37.2l5.45-.53Zm-1.87-13.8c0-4.49,0-9-.11-13.46h3.2c-.12,4.4-.12,8.92-.12,13.46v2.28c0,4.49,0,9,.12,13.47h-3.2c.11-4.4.11-8.92.11-13.47Z" fill="#fff"/><path d="M277.92,31.71c0-3-1.6-4.43-6-6.19l-1.63-.65c-4.51-1.79-7.21-4.29-7.21-8.41,0-5,4.15-7.67,9.21-7.67A11.37,11.37,0,0,1,279.32,11l-.21,5.49h-2l-.94-6.15,2,1.06V13a8.28,8.28,0,0,0-6.06-2.46c-3.67,0-6.39,1.77-6.39,5.31,0,3,1.93,4.67,5.19,6l1.71.67c6,2.36,8,4.74,8,8.74,0,5-4.19,8.05-10,8.05a16.06,16.06,0,0,1-8.33-2.32l.24-5.86h2l.92,6.33-2.1-1V34.86c2.62,1.92,4.26,2.65,7.22,2.65C274.92,37.51,277.92,35.52,277.92,31.71Z" fill="#fff"/><path d="M284.48,10.83V9.41h5.83v1.95h-.39Zm5.83,25.84v1.95h-5.83V37.2l5.44-.53Zm-1.48-13.8c0-4.49,0-9-.12-13.46h3.2c-.12,4.4-.12,8.92-.12,13.78v1.16c0,5.29,0,9.81.12,14.27h-3.2c.12-4.4.12-8.92.12-13.47ZM303,9.41l1.47,1.73H290.31V9.41h15.4l.35,7.34h-1.93Zm-2.92,15.17h-9.74V23h9.74Zm6.78,6.7-.35,7.34H290.31V36.89h14.9l-1.47,1.73,1.16-7.34Zm-7.81-8,.57-4.48h1.55v10h-1.55L299,24.12Z" fill="#fff"/><path d="M310.68,10.83V9.41h5.83v1.95h-.39Zm6.22,25.84,5.44.53v1.42H310.68V37.2l5.44-.53ZM315,22.87c0-4.49,0-9-.11-13.46h3.2c-.12,4.48-.12,8.83-.12,14.37v.94c0,4.92,0,9.44.12,13.9h-3.2c.11-4.4.11-8.92.11-13.47Zm1.49.63h5.74c4.62,0,7.3-2.74,7.3-6.43s-2.21-6-7.16-6h-5.88V9.41h5.94c6.45,0,10.18,2.77,10.18,7.66,0,3.94-3.06,7.21-8.48,7.65l0-.36c3.19.35,4.68,1.71,5.8,5.22l2.55,7.9-1.09-.7,4.6.42v1.42a11.23,11.23,0,0,1-3,.36c-2.48,0-3.42-.67-3.9-2.34L327,29.34c-1-3.41-2.28-4.28-6-4.28h-4.42Z" fill="#fff"/><path d="M354.3,31.71c0-3-1.6-4.43-6-6.19l-1.63-.65c-4.51-1.79-7.21-4.29-7.21-8.41,0-5,4.15-7.67,9.22-7.67a11.39,11.39,0,0,1,7,2.22l-.22,5.49h-2l-.93-6.15,2,1.06V13a8.28,8.28,0,0,0-6.06-2.46c-3.67,0-6.38,1.77-6.38,5.31,0,3,1.92,4.67,5.18,6l1.71.67c6,2.36,8,4.74,8,8.74,0,5-4.19,8.05-10,8.05a16.06,16.06,0,0,1-8.33-2.32l.24-5.86h2l.93,6.33-2.11-1V34.86c2.62,1.92,4.27,2.65,7.22,2.65C351.3,37.51,354.3,35.52,354.3,31.71Z" fill="#fff"/><text transform="translate(86.59 76.02)" font-size="28.97" fill="#fff" font-family="Corbel-Bold, Corbel" font-weight="700">hexbrew</text><path d="M27.55,60.21l-.43-2.54.33-4.54,1.78-4.58.76-5.3s.75-4.93-.8-6.11C27.46,41,23.5,48,23.5,48l-2.82,3.58L19.07,59.3l.32,3.81,1.93,3.11,4.12,3.54,6.13.24s3.42-.88,4-2.42L30.94,64Z" fill="#fff"/><polygon points="63.61 51.43 58.93 47.12 58.01 44.79 59.73 41.38 59.92 41.05 59.78 40.89 57.59 40.45 53.38 43.18 53 45.63 53.41 48.13 54.01 49.77 54.81 51.4 58.03 56.75 59.58 59.2 58.41 62.55 56.55 64.74 59.47 65.94 63.31 66.73 66.01 65.12 67.98 63.35 68.31 61.16 67.72 56.2 63.61 51.43" fill="#fff"/><path d="M32.23,26.28,27.3,22.51l-4-3.31-5.41-.94L11.81,22.8l-.76,6.06,3.79,3.79,5.3-5.3L30,31.13h9.84s3.53-.49,4.55-1.51A84.32,84.32,0,0,1,36,27.35C33.82,26.68,32.23,26.28,32.23,26.28Z" fill="#fff"/><path d="M29.1,48.87a28.55,28.55,0,0,1-3.22-5.24C24.59,46,23.5,48,23.5,48l-2.82,3.58-1.21,5.84a28.38,28.38,0,0,0,16,10.45,1.34,1.34,0,0,0,.12-.24L30.94,64l-3.39-3.81-.43-2.54.33-4.54Z" fill="#fff"/><path d="M20.14,27.35l3.2,1.23a28.14,28.14,0,0,1,1.92-7.75l-2-1.63-.2,0a28.47,28.47,0,0,0-8.33,13.4l.09.09Z" fill="#fff"/><path d="M56.68,64.58a28.51,28.51,0,0,0,8.89-8.36,28.47,28.47,0,0,1-6.23,2.6l.24.38-1.17,3.35Z" fill="#fff"/><path d="M18.46,51.07l.11-.52.33-.42,2.71-3.45c.35-.62,1.76-3.14,3.16-5.77a28.37,28.37,0,0,1-1.6-9.4c0-.19,0-.37,0-.56L20.7,30l-4.25,4.25-1.61,1.61-.67-.67a27.76,27.76,0,0,0-.47,5,28.2,28.2,0,0,0,4,14.52Z" fill="#fff"/><path d="M52.8,65.64l2-2.38,1.59-1.86.66-1.91L57,59.38a27.7,27.7,0,0,1-5.43.53,28.33,28.33,0,0,1-20.8-9.07l-1.08,2.8-.28,3.92.27,1.62,2.82,3.18,4.43,3.42,1.3,1-.53,1.49a29.13,29.13,0,0,0,4.4.34,28.29,28.29,0,0,0,11.75-2.54Z" fill="#fff"/><path d="M26.24,18.69a29.67,29.67,0,0,1,1.86-3.18,30.52,30.52,0,0,0-3.17,2.1Z" fill="#fff"/><path d="M26.74,19.11A26.11,26.11,0,0,1,66,50.74l1.64,1.9a28.4,28.4,0,0,0-42.72-35Z" fill="#fff"/><path d="M66.49,54.78l-1.58-1.84a26.49,26.49,0,0,1-5.54,6.87l-1,2.74-1.74,2A28.49,28.49,0,0,0,66.49,54.78Z" fill="#fff"/><path d="M20.11,54.3l-.64,3.07a28.38,28.38,0,0,0,16,10.45,1.34,1.34,0,0,0,.12-.24L30.94,64l-.28-.32A26.24,26.24,0,0,1,20.11,54.3Z" fill="#fff"/><path d="M18.42,51.25A26.15,26.15,0,0,1,16.74,34l-.29.29-1.61,1.61-.68-.68a28.89,28.89,0,0,0-.46,5,28.2,28.2,0,0,0,4,14.52Z" fill="#fff"/><path d="M18.53,29a26.25,26.25,0,0,1,6.4-8.39L23.28,19.2l-.22,0a28.34,28.34,0,0,0-8.3,13.4l.08.09Z" fill="#fff"/><path d="M52.8,65.64l2-2.38.39-.45A26,26,0,0,1,42.1,66.35a26.7,26.7,0,0,1-5.09-.5l1.22.94-.53,1.49a29.13,29.13,0,0,0,4.4.34,28.29,28.29,0,0,0,11.75-2.54Z" fill="#fff"/></svg>