<svg xmlns="http://www.w3.org/2000/svg" viewBox="0 0 82 82"><title>Asset 19bg</title><rect width="82" height="82" fill="#fff"/><path d="M14.84,32.65h0l1.85-1.85L18.53,29h0l1.61-1.6,7.11,2.73L30,31.13h9.84s.68-.09,1.52-.28A10.27,10.27,0,0,0,43.89,30a2.39,2.39,0,0,0,.49-.36c-.28-.05-.58-.1-.89-.17C41.3,29,38.35,28,36,27.35l-2.18-.64-.56-.15-1.07-.28L27.3,22.51l-4-3.31-5.41-.94L11.81,22.8l-.76,6.06,3.7,3.7Z" fill="#1e1e1e"/><path d="M30.94,64l-.28-.32h0l-3.11-3.49-.43-2.54.33-4.54,1.78-4.58.76-5.3a17.68,17.68,0,0,0,.13-3.66,3.5,3.5,0,0,0-.93-2.45c-.22.48-.47,1-.74,1.57s-.57,1.15-.88,1.74c-.15.3-.31.6-.47.9s-.42.81-.64,1.21l-.57,1.07c-1.06,2-2,3.59-2.28,4.12l-.11.2-.31.38-2.51,3.2L19.07,59.3l.32,3.81.74,1.19,1.19,1.92,4.12,3.54,6.13.24a13,13,0,0,0,2.13-.79l.68-.38a4.58,4.58,0,0,0,.59-.45,2,2,0,0,0,.57-.8l-2.13-1.65Z" fill="#1e1e1e"/><polygon points="67.72 56.2 66.49 54.78 65.91 54.1 63.61 51.43 58.93 47.12 58.01 44.79 59.73 41.38 59.92 41.05 59.78 40.89 57.95 40.52 57.59 40.45 53.38 43.18 53 45.63 53.41 48.13 53.71 48.95 54.01 49.77 54.81 51.4 58.03 56.75 58.8 57.98 59.34 58.82 59.58 59.2 59.37 59.81 59.37 59.81 58.89 61.18 58.41 62.55 56.79 64.45 56.55 64.74 59.47 65.94 63.31 66.73 66.01 65.12 67.98 63.35 68.31 61.16 67.79 56.8 67.72 56.2" fill="#1e1e1e"/><path d="M22.57,45l.39-.69c.54-1,1.17-2.15,1.81-3.35a28.37,28.37,0,0,1-1.6-9.4c0-.19,0-.37,0-.56L20.7,30h0l-4,4h0l-.29.29-1.61,1.61-.67-.67h0c-.15.82-.26,1.65-.34,2.49s-.12,1.69-.12,2.55a28.2,28.2,0,0,0,4,14.52l.72-3.49h0l0-.18.11-.52.33-.42,2.7-3.45C21.76,46.41,22.11,45.78,22.57,45Z" fill="#1e1e1e"/><path d="M57,59.39h0a27.7,27.7,0,0,1-5.43.53,28.17,28.17,0,0,1-14.1-3.75,27,27,0,0,1-3.55-2.41,28.88,28.88,0,0,1-3.15-2.91l-1.08,2.8-.28,3.92.27,1.62,2.82,3.18,4.43,3.42.08.07h0l1.22.94-.26.75-.27.74.21,0a27.65,27.65,0,0,0,4.19.32,29.28,29.28,0,0,0,3-.16l.3,0a28.41,28.41,0,0,0,4.28-.83,26.85,26.85,0,0,0,2.83-.95c.46-.18.91-.37,1.36-.57l-1.05-.44,2-2.38.28-.32.11-.13,1-1.13.24-.28.66-1.91Z" fill="#1e1e1e"/><path d="M26.74,19.11a26,26,0,0,1,31,.18c.33.25.66.51,1,.78a24.73,24.73,0,0,1,1.86,1.68c.29.3.58.6.86.91a25.48,25.48,0,0,1,2.33,3c.24.35.46.7.68,1.06A26.06,26.06,0,0,1,66,50.74l1.64,1.9A28.43,28.43,0,0,0,61.2,19.2c-.34-.31-.68-.6-1-.89a28.17,28.17,0,0,0-9.62-5.21c-.45-.14-.9-.27-1.35-.38a28.41,28.41,0,0,0-14.11,0,28.68,28.68,0,0,0-4.33,1.48,27.88,27.88,0,0,0-2.67,1.36v0l-.68.43c-.28.17-.57.33-.85.51s-.59.42-.89.63-.51.34-.75.53h0l1,.82Z" fill="#1e1e1e"/></svg>