<svg xmlns="http://www.w3.org/2000/svg" viewBox="0 0 77.45 75.82"><title>Asset 7</title><path d="M61.92,62.69l-.23-.36a37.08,37.08,0,0,1-9.24,1.17A37.43,37.43,0,0,1,23.5,49.84l-1.92,4.93-.41,5.72.5,2.95L25.9,68.2l6.57,5.08-.25.68a1.45,1.45,0,0,1-.09.22A37.92,37.92,0,0,0,40,75a37.36,37.36,0,0,0,17.89-4.54l-.46-.19,3.22-3.79Z"/><path d="M40,0A37.19,37.19,0,0,0,21.46,4.89h0L21.31,5q-.58.33-1.14.69l-.32.19c-.46.29-.91.59-1.36.91h0c-1,.68-1.9,1.39-2.79,2.15l.38.32,2.06,1.7c.33-.75.69-1.48,1.07-2.21A35.48,35.48,0,0,1,71.28,54.17l1.4,1.63A37.5,37.5,0,0,0,40,0Z"/><path d="M15.06,23.15,11.2,21.67,4,28.91l-.4-.39A37.39,37.39,0,0,0,9.27,59.05l1.46-7,3.82-4.86C14.8,46.7,16.33,44,18,40.86A37.36,37.36,0,0,1,15,26C15,25,15,24.09,15.06,23.15Z"/><path d="M36.88,24.5a24.77,24.77,0,0,0,3-.65c-2.12-.54-4.51-1.26-6.71-1.93l-1.51-.46c-2.87-.87-5-1.4-5-1.4l-.2,0-6.66-5.1-5.13-4.23L8.2,9.56.89,15.05,0,22.14l4,3.95,6.75-6.76L24.13,24.5Z"/><polygon points="73.18 67.53 73.55 65.13 72.81 59.03 67.62 52.99 61.32 47.2 59.85 43.48 62.04 39.15 60.59 38.86 55.76 42 55.35 44.64 55.84 47.69 56.61 49.76 57.62 51.82 61.83 58.81 64.13 62.44 62.36 67.49 60.68 69.47 63.17 70.5 67.77 71.44 70.92 69.56 73.18 67.53"/><path d="M24.46,69.59l-4.67-5.25-.63-3.75.5-6.4L22,48.24l1-6.88a18.35,18.35,0,0,0,0-5.73c-2.49,5.13-6.53,12.23-6.72,12.57l-.08.12L12.6,52.87l-2.06,9.89.39,4.64,2.34,3.78,5.06,4.33,7.6.31a10.64,10.64,0,0,0,4-2Z"/></svg>